<svg width="3000" height="3000" viewBox="0 0 3000 3000" fill="none" xmlns="http://www.w3.org/2000/svg">
<g opacity="0.3">
<path opacity="0.3" d="M2936.97 222.913V2610.21H123.101V222.913H2936.97ZM2946.01 213.889H114.077V2619.65H2946.01V213.889Z" fill="#C4ECFE"/>
<path opacity="0.3" d="M808.105 213.889H799.492V2619.65H808.105V213.889Z" fill="#C4ECFE"/>
<path opacity="0.3" d="M1168.25 213.889H1159.63V2619.65H1168.25V213.889Z" fill="#C4ECFE"/>
<path opacity="0.3" d="M808.105 213.889H799.492V2619.65H808.105V213.889Z" fill="#C4ECFE"/>
<path opacity="0.3" d="M447.555 213.889H438.942V2619.65H447.555V213.889Z" fill="#C4ECFE"/>
<path opacity="0.3" d="M1528.39 213.889H1519.78V2619.65H1528.39V213.889Z" fill="#C4ECFE"/>
<path opacity="0.3" d="M1888.53 213.889H1879.92V2619.65H1888.53V213.889Z" fill="#C4ECFE"/>
<path opacity="0.3" d="M2244.57 213.889H2235.96V2619.65H2244.57V213.889Z" fill="#C4ECFE"/>
<path opacity="0.3" d="M2600.61 213.889H2592V2619.65H2600.61V213.889Z" fill="#C4ECFE"/>
</g>
<path d="M2804.06 1631.09C2810.86 1631.09 2816.37 1625.58 2816.37 1618.79C2816.37 1611.99 2810.86 1606.48 2804.06 1606.48C2797.27 1606.48 2791.76 1611.99 2791.76 1618.79C2791.76 1625.58 2797.27 1631.09 2804.06 1631.09Z" fill="#BFD9FF"/>
<path d="M2749.51 726.217C2756.31 726.217 2761.82 720.707 2761.82 713.91C2761.82 707.113 2756.31 701.603 2749.51 701.603C2742.72 701.603 2737.21 707.113 2737.21 713.91C2737.21 720.707 2742.72 726.217 2749.51 726.217Z" fill="#BFD9FF"/>
<path d="M566.51 521.121C573.307 521.121 578.817 515.611 578.817 508.815C578.817 502.018 573.307 496.508 566.51 496.508C559.713 496.508 554.203 502.018 554.203 508.815C554.203 515.611 559.713 521.121 566.51 521.121Z" fill="#BFD9FF"/>
<path d="M1704.77 302.49C1711.57 302.49 1717.08 296.98 1717.08 290.183C1717.08 283.387 1711.57 277.877 1704.77 277.877C1697.98 277.877 1692.47 283.387 1692.47 290.183C1692.47 296.98 1697.98 302.49 1704.77 302.49Z" fill="#BFD9FF"/>
<path d="M987.36 1938.73C993.476 1938.73 998.434 1933.77 998.434 1927.66C998.434 1921.54 993.476 1916.58 987.36 1916.58C981.244 1916.58 976.286 1921.54 976.286 1927.66C976.286 1933.77 981.244 1938.73 987.36 1938.73Z" fill="#BFD9FF"/>
<path d="M1707.64 2619.24C1897.15 2606.93 1959.5 2347.28 2070.24 2245.14C2181 2142.62 2419.72 2216.02 2471.81 1936.68C2506.68 1750.05 2662.14 1741.84 2791.35 1672.93C2807.54 1664.36 2825.67 1660.12 2843.98 1660.63C2862.29 1661.13 2880.16 1666.37 2895.85 1675.82C2911.54 1685.28 2924.51 1698.63 2933.52 1714.58C2942.52 1730.53 2947.24 1748.55 2947.23 1766.86V2619.24H1707.64Z" fill="url(#paint0_linear_50_2224)"/>
<path d="M414.74 2558.12H141.97V2285.34H414.74V2558.12ZM150.582 2549.1H405.729V2293.95H150.582V2549.1Z" fill="#2B2B2B"/>
<path d="M246.974 2462.54C234.156 2462.54 221.626 2458.74 210.968 2451.62C200.31 2444.5 192.004 2434.38 187.098 2422.54C182.193 2410.69 180.91 2397.66 183.41 2385.09C185.911 2372.52 192.083 2360.97 201.147 2351.91C210.211 2342.84 221.759 2336.67 234.33 2334.17C246.902 2331.67 259.933 2332.95 271.775 2337.86C283.617 2342.76 293.739 2351.07 300.86 2361.73C307.982 2372.39 311.783 2384.92 311.783 2397.74C311.745 2414.91 304.905 2431.38 292.759 2443.52C280.613 2455.67 264.151 2462.51 246.974 2462.54ZM246.974 2341.95C235.941 2341.95 225.155 2345.22 215.981 2351.35C206.807 2357.48 199.657 2366.19 195.435 2376.39C191.213 2386.58 190.108 2397.8 192.261 2408.62C194.413 2419.44 199.726 2429.38 207.528 2437.18C215.329 2444.98 225.269 2450.3 236.091 2452.45C246.912 2454.6 258.129 2453.5 268.322 2449.27C278.515 2445.05 287.228 2437.9 293.358 2428.73C299.487 2419.55 302.759 2408.77 302.759 2397.74C302.743 2382.95 296.86 2368.77 286.402 2358.31C275.944 2347.85 261.764 2341.97 246.974 2341.95Z" fill="#2B2B2B"/>
<path d="M295.786 2434.24L359.777 2492.9C360.621 2493.61 361.313 2494.48 361.809 2495.47C362.305 2496.45 362.595 2497.53 362.663 2498.63C362.73 2499.73 362.573 2500.84 362.2 2501.87C361.828 2502.91 361.248 2503.86 360.497 2504.67C359.745 2505.48 358.837 2506.13 357.828 2506.57C356.819 2507.02 355.729 2507.25 354.626 2507.26C353.523 2507.28 352.429 2507.06 351.411 2506.64C350.393 2506.21 349.471 2505.59 348.703 2504.8L348.296 2504.39L289.224 2440.39C288.813 2439.98 288.494 2439.48 288.29 2438.94C288.086 2438.39 288 2437.81 288.038 2437.23C288.077 2436.64 288.239 2436.08 288.513 2435.56C288.788 2435.05 289.169 2434.6 289.63 2434.24C290.462 2433.46 291.562 2433.02 292.706 2433.02C293.85 2433.02 294.951 2433.46 295.782 2434.24H295.786Z" fill="#2B2B2B"/>
<path d="M2293.8 2619.23L2947.23 2650V2211.1C2947.23 2145.06 2864.37 2115.93 2822.94 2166.8C2785.09 2213.33 2762.85 2270.59 2759.36 2330.46C2746.25 2525.71 2550.16 2619.23 2293.8 2619.23Z" fill="url(#paint1_linear_50_2224)"/>
<path d="M1144.05 2619.24C1005 2609.39 827.796 2303.82 628.036 2303.82C363.467 2303.82 394.232 2190.61 285.123 2175.43C155.933 2156.95 108.333 2229.56 108.333 2423.98V2626.21L1144.05 2619.24Z" fill="url(#paint2_linear_50_2224)"/>
<path d="M2586.26 613.812C2527.6 561.736 2504.63 507.163 2484.14 458.761C2455.84 391.49 2431.23 333.65 2321.71 290.993L2332.37 263.511C2453.38 310.68 2481.27 377.133 2511.21 447.276C2531.31 494.856 2552.23 544.079 2605.56 591.659L2586.26 613.812Z" fill="#F9D5FF"/>
<path d="M1904.67 1453.36C1932.06 1445.08 1947.66 1416.02 1939.39 1388.65C1931.93 1363.93 1907.66 1348.94 1882.87 1352.36L1831.67 1182.83C1854.14 1171.7 1866.04 1145.78 1858.57 1121.06C1850.31 1093.7 1821.23 1078.12 1793.84 1086.39C1780.28 1090.49 1769.39 1099.58 1762.89 1111.69C1751.04 1105.12 1736.67 1103.66 1723.37 1107.68C1695.98 1115.95 1680.39 1145.01 1688.66 1172.38C1696.12 1197.1 1720.38 1212.1 1745.17 1208.67L1796.45 1378.46C1773.91 1389.33 1762.09 1415.52 1769.47 1439.97C1777.74 1467.34 1806.81 1482.91 1834.2 1474.64C1847.76 1470.54 1858.66 1461.45 1865.16 1449.34C1877.01 1455.91 1891.11 1457.45 1904.67 1453.36Z" fill="#FFE0C2"/>
<path d="M986.855 955.591C1005.08 1019.73 1024.4 1118.93 1037.38 1182.71C1050.02 1246.46 1061.37 1310.36 1071.42 1374.41C1076.28 1406.41 1081.13 1438.42 1085.34 1470.33L1091.64 1518.21L1097.61 1566.05L1100.43 1590.11L1102.93 1614.12L1108.25 1662.19C1111.46 1693.98 1115.02 1726.14 1118.23 1757.93C1131.11 1885.73 1141.7 2013.57 1148.37 2141.54C1151.87 2205.38 1154.27 2269.3 1155.58 2333.28L1156.31 2381.08L1156.52 2405.12L1156.4 2429.11C1156.21 2445.1 1156.35 2461.12 1156.16 2477.1C1155.65 2493.04 1155.79 2515.86 1154.94 2531.76L922.455 2533.46L784.463 1756.35C772.456 1692.37 761.764 1628.55 750.73 1564.38L717.644 1372.15L651.158 988.011L986.855 955.591Z" fill="#EA7068"/>
<path d="M1060.12 1870.53L803.784 1872.86L868.133 2225.85C868.133 2225.85 924.984 2145.57 917.875 2070.78C911.101 1999.51 910.519 1969.28 978.838 1931.63C1046.57 1894.29 1060.12 1870.53 1060.12 1870.53Z" fill="#2B2B2B"/>
<path d="M1011.3 977.368C1012.37 1041.84 1005.18 1140.78 1001.11 1204.45C996.724 1268.05 991.001 1331.69 983.942 1395.37C980.254 1427.18 976.566 1458.98 972.244 1490.65L965.762 1538.14L958.965 1585.57L955.371 1609.4L951.46 1633.17L943.944 1680.77C938.671 1712.22 933.642 1744.06 928.372 1775.51C907.147 1901.96 883.632 2028.24 856.175 2154.32C842.645 2217.23 828.004 2280.12 812.255 2342.98L800.249 2389.92L794.054 2413.51L787.541 2437.04C783.095 2452.7 778.963 2468.43 774.516 2484.08C769.751 2499.67 765.619 2518.79 760.538 2534.31L527.059 2531.29L597.907 1745.12C602.994 1681.34 607.709 1618.01 613.815 1554.12L632.08 1362.76L668.211 980.314L1011.3 977.368Z" fill="#EA7068"/>
<path d="M1340.62 2613.89L958.775 2613.74C938.644 2613.78 922.224 2597.59 921.93 2577.41L920.883 2528.92L1162 2531.62L1344.77 2577.17C1354.77 2579.37 1361.09 2589.29 1358.89 2599.31C1357 2607.88 1349.39 2613.96 1340.62 2613.89Z" fill="#2B2B2B"/>
<path d="M945.288 2613.89L563.439 2613.74C543.308 2613.78 526.889 2597.59 526.594 2577.41L525.547 2528.92L766.668 2531.62L949.433 2577.17C959.431 2579.37 965.751 2589.29 963.55 2599.31C961.663 2607.88 954.046 2613.96 945.288 2613.89Z" fill="#2B2B2B"/>
<path d="M580.076 1944.42L592.739 1816.23L938.193 1826.41L911.099 1887.51C753.995 1890.97 613.053 1898.84 580.076 1944.42Z" fill="#2B2B2B"/>
<path d="M771.958 1033.42C924.913 994.929 1302.07 619.767 1435.12 542.426C1479.82 516.53 1567.12 499.733 1635.92 467.883C1722.17 428.335 1707.51 300.95 1614.27 281.702C1582.78 275.474 1550.58 273.59 1518.58 276.102C1506.04 277.137 1493.42 275.464 1481.57 271.201C1443.5 258.952 1405.44 245.304 1351.66 227.804C1166.57 166.912 1044.35 325.095 921.076 332.443C797.803 339.791 724.119 248.451 564.875 281.349C11.3656 395.79 101.814 1201.06 771.958 1033.42Z" fill="url(#paint3_linear_50_2224)"/>
<path d="M661.257 1835.34C653.074 1835.34 646.44 1828.69 646.44 1820.49C646.44 1812.29 653.074 1805.64 661.257 1805.64C669.44 1805.64 676.074 1812.29 676.074 1820.49C676.074 1828.69 669.44 1835.34 661.257 1835.34Z" fill="#BFD9FF"/>
<path d="M807.578 606.469L1105.11 963.432C1202.19 885.039 1131.3 832.896 1217.56 805.948C1269.94 789.85 1316.04 744.356 1330.01 694.66C1338.39 663.163 1334.9 630.268 1311.5 601.218C1306.26 594.569 1301.72 588.62 1297.18 583.369C1264.35 542.074 1262.26 535.075 1244.79 513.377C1182.99 436.736 1023.74 478.031 807.578 606.469Z" fill="#8670BD"/>
<path d="M1408.93 594.569L1353.4 515.827C1324.67 475.044 1334.36 418.642 1375.05 389.84L1493.79 305.851C1559.01 259.8 1649.11 275.291 1695.29 340.497C1741.24 405.857 1725.78 496.152 1660.71 542.426L1551.76 619.417C1505.38 651.701 1441.73 640.627 1408.93 594.569Z" fill="#EA7068"/>
<path d="M1616.71 557.123C1612.02 561.942 1610.64 569.1 1613.22 575.322L1639.41 556.773C1632.98 550.745 1622.95 550.898 1616.71 557.123Z" fill="#2B2B2B"/>
<path d="M1297.18 583.369L1253.53 655.113L1315.71 731.502L1329.65 695.01C1338.04 663.513 1334.54 630.618 1311.14 601.568C1305.56 594.569 1301.02 588.62 1297.18 583.369Z" fill="#2B2B2B"/>
<path d="M1230.48 627.814L1195.91 500.079L1427.43 352.044L1516.13 478.031L1297.53 650.211C1279.06 664.738 1252.33 661.51 1237.84 642.999C1237.71 642.836 1237.59 642.673 1237.46 642.51C1234.72 637.823 1232.38 632.905 1230.48 627.814Z" fill="#EA7068"/>
<path d="M1603.79 618.368C1622.69 637.311 1653.33 637.311 1672.24 618.368C1691.14 599.426 1691.14 568.717 1672.24 549.775C1653.33 530.832 1622.69 530.832 1603.79 549.775C1584.93 568.734 1584.93 599.406 1603.79 618.368ZM1666.3 555.724C1681.73 571.188 1681.73 596.256 1666.3 611.72C1650.87 627.183 1625.85 627.183 1610.42 611.72C1594.99 596.256 1594.99 571.188 1610.42 555.724C1626.02 540.675 1650.7 540.675 1666.3 555.724Z" fill="#F9D5FF"/>
<path d="M1565.38 565.873C1565.85 566.378 1566.45 566.741 1567.12 566.921L1582.14 573.57C1590.79 575.352 1599.29 569.932 1601.35 561.321L1609.38 530.174C1610.1 527.645 1608.63 525.012 1606.11 524.292C1603.66 523.596 1601.1 524.954 1600.3 527.374L1592.27 558.521C1591.34 561.885 1588.02 563.999 1584.59 563.422L1570.97 557.472C1568.79 556.451 1566.19 557.398 1565.18 559.583C1565.12 559.695 1565.08 559.807 1565.03 559.923C1563.63 562.723 1563.98 564.471 1565.38 565.873Z" fill="#2B2B2B"/>
<path d="M1514.74 586.519C1521.09 592.336 1529.56 595.252 1538.14 594.569C1540.64 594.4 1542.54 592.227 1542.38 589.712C1542.21 587.197 1540.04 585.297 1537.53 585.463C1537.5 585.466 1537.47 585.466 1537.44 585.47C1531.73 585.792 1526.11 583.915 1521.73 580.219C1517.19 575.671 1515.79 567.97 1516.84 558.521C1517.01 556.006 1515.11 553.831 1512.6 553.664C1510.12 553.498 1507.97 555.348 1507.76 557.822C1504.96 567.957 1507.61 578.814 1514.74 586.519Z" fill="#2B2B2B"/>
<path d="M1394.61 574.623L1358.29 522.826L1346.07 612.768L1394.61 574.623Z" fill="#2B2B2B"/>
<path d="M1573.76 508.713C1564.76 508.713 1557.46 501.401 1557.46 492.381C1557.46 483.361 1564.76 476.049 1573.76 476.049C1582.76 476.049 1590.06 483.361 1590.06 492.381C1590.06 501.401 1582.76 508.713 1573.76 508.713Z" fill="#2B2B2B"/>
<path d="M1537.09 523.528C1555.99 542.471 1586.63 542.471 1605.54 523.528C1624.44 504.586 1624.44 473.877 1605.54 454.935C1586.63 435.992 1555.99 435.992 1537.09 454.935C1518.19 473.205 1517.65 503.371 1535.88 522.313C1536.27 522.724 1536.68 523.128 1537.09 523.528ZM1599.25 461.234C1614.68 476.697 1614.68 501.766 1599.25 517.229C1583.82 532.692 1558.81 532.692 1543.38 517.229C1527.94 501.766 1527.94 476.697 1543.38 461.234C1558.65 445.771 1583.54 445.645 1598.97 460.952C1599.06 461.047 1599.16 461.139 1599.25 461.234Z" fill="#F9D5FF"/>
<path d="M1199.75 482.23C1358.99 567.621 1356.2 533.324 1487.85 468.582C1596.81 415.387 1683.06 538.225 1715.19 465.432C1737.54 414.338 1716.94 341.196 1655.13 299.551C1592.96 258.256 1468.99 278.203 1397.75 320.9C1325.81 364.293 1199.75 482.23 1199.75 482.23Z" fill="url(#paint4_linear_50_2224)"/>
<path d="M1108.93 772.506L1104.41 963.428C1108.67 960.913 1118.86 951.576 1131.76 939.124C1165.4 906.649 1169.61 854.13 1141.7 816.595L1108.93 772.506Z" fill="#2B2B2B"/>
<path d="M1151.03 891.916L1196.89 1004.57L1199.09 1009.72C1207.3 1028.9 1221.33 1044.99 1239.19 1055.73L1665.18 1308.8C1707.75 1333.91 1762.58 1319.68 1787.64 1277.02C1810.73 1237.7 1800.66 1187.27 1764.26 1159.87L1395.21 886.478L1358.46 800.218L1151.03 891.916Z" fill="#EA7068"/>
<path d="M1395.3 884.988L1243.06 525.534C1218.57 467.14 1156.58 459.792 1098.59 484.982C1040.59 510.173 1008.06 556.814 1032.56 615.209L1185.43 977.052L1395.3 884.988Z" fill="#8670BD"/>
<path d="M666.784 846.703C657.85 765.304 694.268 683.802 806.88 606.469L1105.68 962.553C1105.68 962.553 1105.61 962.804 1105.47 963.215L1250.54 1851.48C1253.91 1872.14 1238.01 1890.9 1217.12 1890.9H584.153L666.784 846.703Z" fill="url(#paint5_linear_50_2224)"/>
<path d="M929.042 1779.19C931.473 1779.19 933.624 1777.43 934.044 1774.95L934.454 1772.53C934.921 1769.76 933.055 1767.13 930.288 1766.66C927.514 1766.2 924.896 1768.06 924.432 1770.83L924.029 1773.24C923.558 1776.02 925.421 1778.65 928.188 1779.11C928.473 1779.17 928.761 1779.19 929.042 1779.19ZM933.942 1749.99C936.381 1749.99 938.528 1748.23 938.948 1745.74C949.305 1683.7 958.07 1628.86 965.741 1578.1C966.161 1575.32 964.254 1572.72 961.477 1572.3C958.713 1571.92 956.116 1573.79 955.692 1576.57C948.028 1627.28 939.273 1682.07 928.926 1744.06C928.462 1746.83 930.332 1749.46 933.099 1749.93C933.38 1749.97 933.665 1749.99 933.942 1749.99ZM964.728 1555.59C967.204 1555.59 969.375 1553.78 969.744 1551.25C974.946 1516.03 979.698 1482.08 983.874 1450.34C984.24 1447.55 982.282 1444.99 979.502 1444.62C976.738 1444.27 974.167 1446.22 973.798 1449.01C969.632 1480.7 964.888 1514.59 959.696 1549.76C959.282 1552.54 961.199 1555.13 963.977 1555.54C964.227 1555.58 964.478 1555.59 964.728 1555.59Z" fill="#2B2B2B"/>
<path d="M1339.14 755.315C1339.8 755.315 1340.48 755.183 1341.14 754.904C1343.72 753.798 1344.91 750.808 1343.81 748.222L1280.49 599.752C1279.39 597.166 1276.41 595.968 1273.82 597.071C1271.24 598.177 1270.05 601.167 1271.15 603.754L1334.47 752.223C1335.29 754.158 1337.17 755.315 1339.14 755.315Z" fill="#2B2B2B"/>
<path d="M2613.89 2600H1277.78V2613.89H2613.89V2600Z" fill="#2B2B2B"/>
<path d="M2647.29 2562.59L2445.19 1947.88H2258.26V1965.35L2256.91 2462.47C2256.91 2493.12 2231.99 2517.97 2201.25 2517.97L2198.95 2518.03C2161.9 2518.03 2131.87 2547.65 2131.87 2584.19C2131.87 2584.19 2131.87 2584.19 2131.87 2584.2C2131.89 2596.83 2142.31 2607.06 2155.12 2607.06H2258.26H2291.54H2614.98C2638.12 2607.06 2654.5 2584.51 2647.29 2562.59Z" fill="white"/>
<path d="M2473.64 2026.48V1787.79C2448.34 1768.61 2416.8 1757.21 2382.58 1757.21H2323.65V2070.67C2323.65 2128.38 2370.56 2175.16 2428.42 2175.16C2461.12 2175.16 2490.31 2160.22 2509.52 2136.82L2473.64 2026.48Z" fill="#2B2B2B"/>
<path d="M2361.21 1919.77H2258.26V1995.41H2361.21V1919.77Z" fill="#2B2B2B"/>
<path d="M2817.9 2536.02H2638.33L2648.37 2562.74C2654.07 2587.92 2643.52 2606.96 2615.74 2610.77L2613.27 2611.11H2817.9C2838.61 2611.11 2855.56 2594.22 2855.56 2573.56C2855.56 2552.91 2838.61 2536.02 2817.9 2536.02Z" fill="#BE6361"/>
<path d="M2614.98 2611.11H2258.26C2256.02 2611.11 2254.2 2609.3 2254.2 2607.06C2254.2 2604.82 2256.02 2603.01 2258.26 2603.01H2614.98C2624.69 2603.01 2633.53 2598.51 2639.23 2590.67C2644.93 2582.83 2646.46 2573.05 2643.43 2563.85L2442.25 1951.93H2258.26C2256.02 1951.93 2254.2 1950.12 2254.2 1947.88C2254.2 1945.64 2256.02 1943.82 2258.26 1943.82H2445.19C2446.95 1943.82 2448.51 1944.95 2449.05 1946.61L2651.16 2561.32C2655.01 2573.02 2653.06 2585.45 2645.81 2595.43C2638.56 2605.39 2627.33 2611.11 2614.98 2611.11Z" fill="#FDC068"/>
<path d="M2291.54 2611.11H2155.12C2140.08 2611.11 2127.83 2599.04 2127.81 2584.2C2127.81 2545.47 2159.72 2513.97 2198.95 2513.97L2201.16 2513.92C2229.7 2513.92 2252.85 2490.84 2252.85 2462.47V1939.28C2252.85 1937.04 2254.67 1935.23 2256.91 1935.23C2259.15 1935.23 2260.97 1937.04 2260.97 1939.28V2462.47C2260.97 2495.31 2234.18 2522.02 2201.25 2522.02L2199.04 2522.08C2164.21 2522.08 2135.94 2549.94 2135.94 2584.19C2135.95 2594.56 2144.56 2603.01 2155.12 2603.01H2291.54C2293.78 2603.01 2295.6 2604.82 2295.6 2607.06C2295.6 2609.3 2293.79 2611.11 2291.54 2611.11Z" fill="#FDC068"/>
<path d="M2258.26 2189.92H2171.57V2198.58C2171.57 2218.28 2155.56 2234.25 2135.81 2234.25H2127.55H2039.92C2027.12 2234.25 2016.71 2223.93 2016.65 2211.15C2016.65 2211.14 2016.65 2211.13 2016.65 2211.12C2016.65 2174.18 2046.68 2117.21 2083.73 2117.21H2309.74L2258.26 2189.92Z" fill="white"/>
<path d="M2135.81 2238.29H2039.92C2024.92 2238.29 2012.66 2226.13 2012.58 2211.17C2012.58 2172.58 2043.13 2113.16 2083.73 2113.16H2309.74C2311.98 2113.16 2313.8 2114.97 2313.8 2117.21C2313.8 2119.45 2311.98 2121.26 2309.74 2121.26H2083.73C2049.55 2121.26 2020.71 2176.46 2020.71 2211.12C2020.77 2221.64 2029.38 2230.19 2039.92 2230.19H2135.81C2153.29 2230.19 2167.51 2216.01 2167.51 2198.58V2189.92C2167.51 2187.68 2169.33 2185.87 2171.57 2185.87H2258.26C2260.51 2185.87 2262.33 2187.68 2262.33 2189.92C2262.33 2192.16 2260.51 2193.98 2258.26 2193.98H2175.64V2198.58C2175.64 2220.48 2157.77 2238.29 2135.81 2238.29Z" fill="#FDC068"/>
<path d="M2396.19 1840.79L2405.9 1826.05C2423.68 1799.04 2416.07 1762.42 2388.99 1744.69L2364.05 1728.36C2331.92 1707.32 2291.74 1707.51 2260.38 1725.41C2247.11 1732.98 2230.68 1732.41 2217.9 1724.04L2122.49 1661.57L2112.91 1676.13C2066.59 1746.47 2086.23 1840.95 2156.77 1887.14L2346.2 2006.09L2439.65 1864.17L2396.19 1840.79Z" fill="white"/>
<path d="M2346.2 2010.15C2345.46 2010.15 2344.71 2009.94 2344.04 2009.52L2154.6 1890.57C2119.52 1867.59 2095.54 1832.43 2087.04 1791.51C2078.53 1750.6 2086.52 1708.83 2109.51 1673.9L2119.1 1659.34C2119.69 1658.44 2120.61 1657.82 2121.67 1657.6C2122.73 1657.38 2123.82 1657.59 2124.72 1658.18L2220.13 1720.65C2226.15 1724.59 2233.12 1726.67 2240.29 1726.67C2246.63 1726.67 2252.88 1725.02 2258.36 1721.89C2274.04 1712.94 2291.91 1708.21 2310.01 1708.21C2330.08 1708.21 2349.54 1714.01 2366.28 1724.97L2391.22 1741.3C2420.25 1760.3 2428.36 1799.32 2409.3 1828.27L2402.02 1839.31L2441.58 1860.59C2442.58 1861.13 2443.32 1862.07 2443.59 1863.17C2443.87 1864.27 2443.67 1865.44 2443.05 1866.39L2349.6 2008.32C2348.82 2009.5 2347.52 2010.15 2346.2 2010.15ZM2123.66 1667.18L2116.3 1678.35C2094.5 1711.47 2086.93 1751.07 2095 1789.87C2103.06 1828.66 2125.79 1862 2159 1883.75L2344.99 2000.55L2433.82 1865.63L2394.27 1844.35C2393.26 1843.81 2392.53 1842.88 2392.25 1841.78C2391.97 1840.68 2392.17 1839.51 2392.8 1838.56L2402.5 1823.82C2419.1 1798.61 2412.04 1764.63 2386.75 1748.08L2361.82 1731.75C2346.4 1721.65 2328.48 1716.32 2310.01 1716.32C2293.31 1716.32 2276.85 1720.68 2262.4 1728.93C2255.68 1732.76 2248.04 1734.78 2240.29 1734.78C2231.53 1734.78 2223.01 1732.24 2215.67 1727.44L2123.66 1667.18Z" fill="#FDC068"/>
<path d="M2089.46 1754.41L2102.77 1763.13C2111.34 1768.74 2122.95 1766.34 2128.58 1757.79L2169.06 1696.31C2170.14 1694.68 2169.68 1692.47 2168.04 1691.4L2122.83 1661.79C2116.66 1657.75 2108.29 1659.48 2104.23 1665.64L2078.98 1703.99C2067.96 1720.73 2072.67 1743.42 2089.46 1754.41Z" fill="#2B2B2B"/>
<path d="M2112.96 1770.21C2108.53 1770.21 2104.23 1768.93 2100.54 1766.51L2087.23 1757.79C2078.2 1751.88 2072.02 1742.78 2069.81 1732.17C2067.61 1721.57 2069.65 1710.76 2075.58 1701.77L2100.83 1663.41C2104.07 1658.49 2109.55 1655.56 2115.49 1655.56C2118.9 1655.56 2122.21 1656.54 2125.06 1658.41L2170.27 1688.01C2173.78 1690.31 2174.76 1695.03 2172.46 1698.53L2131.97 1760.01C2127.77 1766.4 2120.66 1770.21 2112.96 1770.21ZM2115.49 1663.66C2112.3 1663.66 2109.35 1665.23 2107.62 1667.86L2082.38 1706.22C2077.64 1713.41 2076 1722.04 2077.77 1730.53C2079.54 1739.02 2084.48 1746.3 2091.69 1751.02L2105 1759.74C2107.37 1761.29 2110.12 1762.11 2112.96 1762.11C2117.92 1762.11 2122.49 1759.66 2125.18 1755.57L2165.39 1694.51L2120.6 1665.18C2119.08 1664.18 2117.31 1663.66 2115.49 1663.66Z" fill="#2B2B2B"/>
<path d="M2254.47 1799.94C2251.41 1799.94 2248.32 1799.08 2245.57 1797.27C2238.06 1792.36 2235.97 1782.31 2240.9 1774.83L2259.31 1746.87C2264.23 1739.39 2274.31 1737.31 2281.81 1742.22C2289.32 1747.14 2291.41 1757.19 2286.48 1764.67L2268.08 1792.62C2264.95 1797.36 2259.76 1799.94 2254.47 1799.94Z" fill="#2B2B2B"/>
<path d="M2428.42 2130.21C2370.55 2130.21 2323.64 2083.43 2323.64 2025.73V1712.46C2323.64 1709.68 2326.35 1707.7 2329.01 1708.53L2404.96 1732.17C2481.25 1755.92 2533.2 1826.36 2533.2 1906.06V2025.72C2533.2 2083.43 2486.29 2130.21 2428.42 2130.21Z" fill="#BE6361"/>
<path d="M2268.43 2611.11H2242.67C2229.85 2611.11 2219.44 2601.56 2219.42 2589.74C2219.42 2589.74 2219.42 2589.74 2219.42 2589.74C2219.42 2555.59 2249.45 2527.91 2286.5 2527.91L2260.91 2559.63L2256.47 2594.06L2265.48 2603.24L2330.33 2611.11" fill="#2B2B2B"/>
<path d="M2369.28 2611.11H2281.63C2266.58 2611.11 2254.33 2598.92 2254.31 2583.95C2254.31 2544.82 2286.22 2512.99 2325.45 2512.99C2327.7 2512.99 2329.52 2514.8 2329.52 2517.04C2329.52 2519.28 2327.7 2521.09 2325.45 2521.09C2290.71 2521.09 2262.44 2549.29 2262.44 2583.94C2262.45 2594.45 2271.06 2603.01 2281.63 2603.01H2369.28C2371.52 2603.01 2373.34 2604.82 2373.34 2607.06C2373.34 2609.3 2371.52 2611.11 2369.28 2611.11Z" fill="#FDC068"/>
<path d="M2329.94 2519.44C2329.82 2519.44 2329.7 2519.44 2329.58 2519.43C2327.35 2519.24 2325.69 2517.27 2325.89 2515.04C2326.25 2510.85 2326.77 2506.63 2327.42 2502.47C2327.77 2500.26 2329.86 2498.76 2332.07 2499.1C2334.28 2499.45 2335.8 2501.52 2335.45 2503.73C2334.83 2507.7 2334.33 2511.74 2333.98 2515.74C2333.8 2517.85 2332.02 2519.44 2329.94 2519.44ZM2333.45 2496.55C2333.16 2496.55 2332.86 2496.52 2332.57 2496.45C2330.38 2495.97 2329 2493.81 2329.48 2491.62C2339.61 2445.88 2366.7 2406.36 2405.77 2380.32C2407.63 2379.08 2410.16 2379.58 2411.41 2381.44C2412.65 2383.3 2412.15 2385.82 2410.28 2387.06C2372.97 2411.93 2347.09 2449.69 2337.41 2493.37C2337 2495.26 2335.32 2496.55 2333.45 2496.55ZM2426.74 2376.87C2425.26 2376.87 2423.83 2376.05 2423.11 2374.63C2422.1 2372.64 2422.91 2370.2 2424.91 2369.19C2431.57 2365.85 2438.5 2362.89 2445.53 2360.39L2475.9 2349.57C2478.02 2348.82 2480.34 2349.92 2481.1 2352.03C2481.85 2354.13 2480.75 2356.45 2478.64 2357.2L2448.26 2368.02C2441.55 2370.41 2434.92 2373.24 2428.57 2376.43C2427.98 2376.73 2427.36 2376.87 2426.74 2376.87Z" fill="#FDC068"/>
<path d="M2320.57 2130.49H2120.1V2139.14C2120.1 2158.84 2104.09 2174.81 2084.33 2174.81H2076.08H1988.45C1975.64 2174.81 1965.24 2164.49 1965.17 2151.72C1965.17 2151.7 1965.17 2151.7 1965.17 2151.69C1965.17 2114.74 1995.21 2057.78 2032.25 2057.78H2304.32L2320.57 2130.49Z" fill="white"/>
<path d="M2084.33 2178.86H1988.45C1973.45 2178.86 1961.19 2166.69 1961.11 2151.74C1961.11 2113.15 1991.66 2053.72 2032.25 2053.72H2258.26C2260.51 2053.72 2262.33 2055.54 2262.33 2057.78C2262.33 2060.02 2260.51 2061.83 2258.26 2061.83H2032.25C1998.08 2061.83 1969.24 2117.02 1969.24 2151.69C1969.29 2162.21 1977.91 2170.76 1988.45 2170.76H2084.34C2101.82 2170.76 2116.04 2156.57 2116.04 2139.14V2130.49C2116.04 2128.25 2117.86 2126.44 2120.1 2126.44H2309.74C2311.98 2126.44 2313.8 2128.25 2313.8 2130.49C2313.8 2132.73 2311.98 2134.54 2309.74 2134.54H2124.17V2139.14C2124.17 2161.04 2106.3 2178.86 2084.33 2178.86Z" fill="#FDC068"/>
<path d="M2201.89 923.733C2155.35 913.736 2119.87 866.829 2085.67 821.714C2054.04 780.191 2021.39 737.127 1983.33 727.643L1989.51 702.778C2036.56 714.312 2072.04 760.949 2106.24 806.077C2137.61 847.604 2170.27 890.412 2207.55 898.359L2201.89 923.733Z" fill="#F9D5FF"/>
<path d="M2680.92 1111.11C2627.43 1093.68 2583.47 1033.96 2542.84 973.975L2564.18 959.619C2600.44 1013.19 2643.12 1071.64 2688.87 1086.5L2680.92 1111.11Z" fill="#F9D5FF"/>
<path d="M2115.28 861.111C2123.72 861.111 2130.56 854.271 2130.56 845.833C2130.56 837.396 2123.72 830.556 2115.28 830.556C2106.84 830.556 2100 837.396 2100 845.833C2100 854.271 2106.84 861.111 2115.28 861.111Z" fill="#C4ECFE"/>
<path d="M2240.78 962.622C2194.24 952.625 2158.76 905.717 2124.56 860.603C2092.93 819.08 2060.28 776.016 2022.22 766.532L2028.39 741.667C2075.45 753.201 2110.93 799.838 2145.13 844.966C2176.5 886.493 2209.15 929.301 2246.44 937.248L2240.78 962.622Z" fill="#F9D5FF"/>
<path d="M2719.81 1150C2666.32 1132.57 2622.35 1072.85 2581.73 1012.86L2603.07 998.508C2639.33 1052.08 2682.01 1110.53 2727.76 1125.39L2719.81 1150Z" fill="#F9D5FF"/>
<defs>
<linearGradient id="paint0_linear_50_2224" x1="2098.91" y1="1893.55" x2="2686.56" y2="2614.76" gradientUnits="userSpaceOnUse">
<stop stop-color="#C0DDFC"/>
<stop offset="0.19" stop-color="#D3E7FD"/>
<stop offset="0.49" stop-color="#EBF4FE"/>
<stop offset="0.77" stop-color="#FAFCFF"/>
<stop offset="1" stop-color="white"/>
</linearGradient>
<linearGradient id="paint1_linear_50_2224" x1="2620.51" y1="2178.47" x2="2620.51" y2="2634.54" gradientUnits="userSpaceOnUse">
<stop stop-color="#FFD8A1"/>
<stop offset="1" stop-color="white"/>
</linearGradient>
<linearGradient id="paint2_linear_50_2224" x1="626.189" y1="2206.22" x2="626.189" y2="2612.93" gradientUnits="userSpaceOnUse">
<stop stop-color="#FFEFA1"/>
<stop offset="1" stop-color="white"/>
</linearGradient>
<linearGradient id="paint3_linear_50_2224" x1="947.934" y1="1096.69" x2="947.934" y2="187.084" gradientUnits="userSpaceOnUse">
<stop stop-color="#F9D5FF"/>
<stop offset="0.17" stop-color="#F9D5FC"/>
<stop offset="0.32" stop-color="#F9D5F1"/>
<stop offset="0.45" stop-color="#FAD6E0"/>
<stop offset="0.58" stop-color="#FBD7C7"/>
<stop offset="0.71" stop-color="#FCD8A7"/>
<stop offset="0.83" stop-color="#FDD97F"/>
<stop offset="0.95" stop-color="#FEDA52"/>
<stop offset="1" stop-color="#FFDB40"/>
</linearGradient>
<linearGradient id="paint4_linear_50_2224" x1="1461.85" y1="1096.69" x2="1461.85" y2="187.084" gradientUnits="userSpaceOnUse">
<stop stop-color="#F9D5FF"/>
<stop offset="0.17" stop-color="#F9D5FC"/>
<stop offset="0.32" stop-color="#F9D5F1"/>
<stop offset="0.45" stop-color="#FAD6E0"/>
<stop offset="0.58" stop-color="#FBD7C7"/>
<stop offset="0.71" stop-color="#FCD8A7"/>
<stop offset="0.83" stop-color="#FDD97F"/>
<stop offset="0.95" stop-color="#FEDA52"/>
<stop offset="1" stop-color="#FFDB40"/>
</linearGradient>
<linearGradient id="paint5_linear_50_2224" x1="910.101" y1="615.602" x2="921.885" y2="2590.99" gradientUnits="userSpaceOnUse">
<stop stop-color="#EA979A"/>
<stop offset="0.41" stop-color="#F2D38B"/>
<stop offset="0.5" stop-color="#7E9DAE"/>
<stop offset="0.6" stop-color="#90979D"/>
<stop offset="1" stop-color="#7EBDDB"/>
</linearGradient>
</defs>
</svg>
