<?xml version="1.0" encoding="UTF-8"?><svg version="1.1" xmlns="http://www.w3.org/2000/svg" xmlns:xlink="http://www.w3.org/1999/xlink" viewBox="0 0 1200 800" width="1200" height="800" x="0px" y="0px">
    
    
    <!-- ITEM 0 -->
    <g>
        <defs>
            <clipPath id="clip-path-id-viewbox-item-0">
                <rect x="0.0" y="0.0" width="129.564" height="301.22"/>
            </clipPath>
        </defs>
        <g transform="translate(474.0 278.0) rotate(0.0 85.5 198.5) scale(1.3198110586273966 1.3179735741318637)">
            <g clip-path="url(#clip-path-id-viewbox-item-0)" transform="translate(-0.0 -0.0)">
                
<g>
	
		<linearGradient id="L_shoe_1_-i0" gradientUnits="userSpaceOnUse" x1="-107.1272" y1="339.2182" x2="30.6148" y2="396.1515" gradientTransform="matrix(1 0 0 1 0 -119.8898)">
		<stop offset="0" style="stop-color:#A1C3FC"/>
		<stop offset="0.6955" style="stop-color:#81AEF2"/>
		<stop offset="1" style="stop-color:#78A9EF"/>
	</linearGradient>
	<path id="L_shoe-i0" style="fill:url(#L_shoe_1_-i0);" d="M18.353,250.021L0,301.216l129.564,0.004c0,0-6.643-12.814-28.79-22.305   s-42.647-28.889-42.647-28.889L18.353,250.021"/>
	
		<linearGradient id="L_trousers_1_-i0" gradientUnits="userSpaceOnUse" x1="-117.7218" y1="362.5699" x2="33.9084" y2="256.5836" gradientTransform="matrix(1 0 0 1 0 -119.8898)">
		<stop offset="0.1291" style="stop-color:#428DFC"/>
		<stop offset="0.9987" style="stop-color:#1D72D8"/>
	</linearGradient>
	<path id="L_trousers-i0" style="fill:url(#L_trousers_1_-i0);" d="M11.253,0c0,0-1.978,34.285,31.648,84.393s5.752,75.404-4.615,89.009   c-6.736,8.84-8.548,9.388-16.329,19.39c-7.639,9.819-22.979,28.221-13.59,57.472l78.05,2.257c0,0,33.625-118.019,31.648-143.073   S73.087,0,73.087,0H11.253"/>
</g>

            </g>
        </g>
    </g>
    
    <!-- ITEM 1 -->
    <g>
        <defs>
            <clipPath id="clip-path-id-viewbox-item-1">
                <rect x="0.0" y="0.0" width="400.0" height="213.0"/>
            </clipPath>
        </defs>
        <g transform="translate(231.0 339.0) rotate(0.0 377.0 201.0) scale(1.885 1.8873239436619718)">
            <g clip-path="url(#clip-path-id-viewbox-item-1)" transform="translate(-0.0 -0.0)">
                
<path id="back_wheel-i1" fill="#23286B" d="M82.286,213c-43.81,0-79.314-35.576-79.314-79.474s35.543-79.474,79.314-79.474  S161.6,89.629,161.6,133.526C161.562,177.385,126.095,212.962,82.286,213z M82.286,58.899c-41.143,0-74.476,33.4-74.476,74.626  s33.371,74.626,74.476,74.626s74.476-33.4,74.476-74.626C156.724,92.339,123.429,58.937,82.286,58.899z"/>
<linearGradient id="back_1_-i1" gradientUnits="userSpaceOnUse" x1="2486.5601" y1="3414.0752" x2="4804.6704" y2="3414.0752" gradientTransform="matrix(0.0741 0 0 0.0741 -184.2541 -164.3088)">
	<stop offset="0" style="stop-color:#A1C3FC"/>
	<stop offset="0.6955" style="stop-color:#81AEF2"/>
	<stop offset="1" style="stop-color:#78A9EF"/>
</linearGradient>
<path id="back-i1" fill="url(#back_1_-i1)" d="M82.286,43.86C46.476,43.898,14.096,65.351,0,98.37h5.981  c19.39-42.256,69.257-60.732,111.429-41.34c29.79,13.742,48.914,43.593,48.914,76.459h5.448  C171.733,84.017,131.695,43.936,82.286,43.86z"/>
<linearGradient id="front_1_-i1" gradientUnits="userSpaceOnUse" x1="6349.043" y1="3178.6355" x2="7884.6704" y2="3178.6355" gradientTransform="matrix(0.0741 0 0 0.0741 -184.2541 -164.3088)">
	<stop offset="0" style="stop-color:#A1C3FC"/>
	<stop offset="0.6955" style="stop-color:#81AEF2"/>
	<stop offset="1" style="stop-color:#78A9EF"/>
</linearGradient>
<path id="front-i1" fill="url(#front_1_-i1)" d="M317.6,49.356c32.876,0.038,62.743,19.277,76.419,49.242H400  c-18.667-44.279-68.876-65.884-113.79-49.012c0.609,1.717,1.295,3.397,1.981,5.115C297.6,51.151,307.543,49.318,317.6,49.356z"/>
<path id="front_wheel-i1" fill="#23286B" d="M317.6,213c-43.81,0-79.314-35.576-79.314-79.474S273.79,54.052,317.6,54.052  s79.314,35.576,79.314,79.474C396.876,177.385,361.371,212.962,317.6,213z M317.6,58.899c-41.143,0-74.476,33.4-74.476,74.626  s33.333,74.626,74.476,74.626s74.476-33.4,74.476-74.626C392,92.339,358.705,58.937,317.6,58.899z"/>
<linearGradient id="gearbox_1_-i1" gradientUnits="userSpaceOnUse" x1="3454.6167" y1="4118.52" x2="5227.7607" y2="4118.52" gradientTransform="matrix(0.0741 0 0 0.0741 -184.2541 -164.3088)">
	<stop offset="0" style="stop-color:#23286B"/>
	<stop offset="1" style="stop-color:#151A4F"/>
</linearGradient>
<path id="gearbox-i1" fill="url(#gearbox_1_-i1)" d="M182.514,119.822L182.514,119.822H86.438c-8.114,0-14.705,6.603-14.705,14.735  c0,7.596,5.752,13.933,13.295,14.658l93.752,12.482c0.305,0.038,0.61,0.076,0.914,0.114h0.114l0,0  c0.762,0.076,1.524,0.114,2.286,0.114c11.619,0,21.029-9.429,21.029-21.071C203.086,129.441,193.943,120.089,182.514,119.822z"/>
<linearGradient id="_2_1_-i1" gradientUnits="userSpaceOnUse" x1="6064.5273" y1="3119.1506" x2="6802.7734" y2="3119.1506" gradientTransform="matrix(0.0741 0 0 0.0741 -184.2541 -164.3088)">
	<stop offset="0" style="stop-color:#A1C3FC"/>
	<stop offset="0.6955" style="stop-color:#81AEF2"/>
	<stop offset="1" style="stop-color:#78A9EF"/>
</linearGradient>
<polygon id="_2-i1" fill="url(#_2_1_-i1)" points="315.848,133.641 265.029,0 269.371,0.038 319.733,132.152 "/>
<linearGradient id="_1_1_-i1" gradientUnits="userSpaceOnUse" x1="4328.085" y1="3224.7542" x2="5069.9473" y2="3224.7542" gradientTransform="matrix(0.0741 0 0 0.0741 -184.2541 -164.3088)">
	<stop offset="0" style="stop-color:#A1C3FC"/>
	<stop offset="0.6955" style="stop-color:#81AEF2"/>
	<stop offset="1" style="stop-color:#78A9EF"/>
</linearGradient>
<polygon id="_1-i1" fill="url(#_1_1_-i1)" points="136.457,8.78 140.343,7.291 191.429,140.511 187.581,142 "/>
<linearGradient id="handle_1_-i1" gradientUnits="userSpaceOnUse" x1="6064.5273" y1="2463.6365" x2="6625.2295" y2="2463.6365" gradientTransform="matrix(0.0741 0 0 0.0741 -184.2541 -164.3088)">
	<stop offset="0" style="stop-color:#A1C3FC"/>
	<stop offset="0.6955" style="stop-color:#81AEF2"/>
	<stop offset="1" style="stop-color:#78A9EF"/>
</linearGradient>
<path id="handle-i1" fill="url(#handle_1_-i1)" d="M290.324,36.454l-1.143-4.008c2.629-0.84,5.143-2.061,7.391-3.664  c4.419-3.206,6.362-7.138,5.752-11.68c-0.495-3.894-3.352-12.902-18.895-12.902H266.59l-1.562-4.16h18.4  c2.743,0,8.038,0.344,12.952,2.672c5.562,2.481,9.41,7.787,10.057,13.857C307.962,28.248,296.571,34.699,290.324,36.454z"/>
<linearGradient id="frame_1_-i1" gradientUnits="userSpaceOnUse" x1="5245.811" y1="1402.151" x2="5456.5557" y2="3070.9041" gradientTransform="matrix(0.0741 0 0 0.0741 -184.2541 -164.3088)">
	<stop offset="0" style="stop-color:#A1C3FC"/>
	<stop offset="0.6955" style="stop-color:#81AEF2"/>
	<stop offset="1" style="stop-color:#78A9EF"/>
</linearGradient>
<polygon id="frame-i1" fill="url(#frame_1_-i1)" points="282.171,45.12 187.962,145.13 184.952,142.267 277.79,43.707 154.286,43.593   152.686,39.432 280.038,39.546 "/>
<linearGradient id="seat_1_-i1" gradientUnits="userSpaceOnUse" x1="4128.9497" y1="2168.7932" x2="4465.439" y2="2372.8933" gradientTransform="matrix(0.0741 0 0 0.0741 -184.2541 -164.3088)">
	<stop offset="0" style="stop-color:#23286B"/>
	<stop offset="1" style="stop-color:#151A4F"/>
</linearGradient>
<path id="seat-i1" fill="url(#seat_1_-i1)" d="M155.848,12.788h-33.181c0,0-1.562-11.872,11.581-11.872s19.695-0.764,19.695-0.764  L155.848,12.788"/>
<ellipse id="small_detail-i1" fill="#23286B" cx="317.067" cy="130.93" rx="7.467" ry="7.482"/>
<ellipse id="small_detail_1_-i1" fill="#FFFFFF" cx="187.352" cy="140.091" rx="7.467" ry="7.482"/>
<path id="detail-i1" fill="#23286B" d="M317.067,147.077c-8.876,0-16.076-7.214-16.076-16.108s7.2-16.108,16.076-16.108  c8.876,0,16.076,7.214,16.076,16.108C333.143,139.862,325.943,147.038,317.067,147.077z M317.067,118.295  c-6.971,0-12.609,5.649-12.609,12.635c0,6.986,5.638,12.635,12.609,12.635s12.61-5.649,12.61-12.635  C329.676,123.983,324.038,118.295,317.067,118.295L317.067,118.295z"/>

            </g>
        </g>
    </g>
    
    <!-- ITEM 2 -->
    <g>
        <defs>
            <clipPath id="clip-path-id-viewbox-item-2">
                <rect x="0.0" y="0.0" width="251.0" height="400.0"/>
            </clipPath>
        </defs>
        <g transform="translate(447.0 84.0) rotate(0.0 181.0 288.0) scale(1.4422310756972112 1.44)">
            <g clip-path="url(#clip-path-id-viewbox-item-2)" transform="translate(-0.0 -0.0)">
                
<g id="man-i2">
	<path id="L_shoe-2-i2" fill="#A1C3FC" d="M78.164,354.1l-16.482,45.909h116.29c0,0-5.952-11.468-25.829-20.002   c-19.877-8.496-38.267-25.908-38.267-25.908H78.164"/>
	<path id="R_trousers-i2" fill="#428DFC" d="M36.349,130.151c0,0-22.472,43.128,14.803,67.969s76.306,39.586,54.406,55.549   s-30.179,29.565-30.179,46.101c0,16.535-9.615,14.211-19.076,22.479c-9.462,8.267-13.391,21.564-9.844,32.194l67.415-0.343   c0,0,67.454-92.201,70.429-105.802c2.976-13.601,11.255-19.507-25.448-47.282s-71.04-59.054-71.04-59.054L36.349,130.151z"/>
	<path id="texture-i2" opacity="0.86" fill="#FFFFFF" enable-background="new    " d="M46.497,165.926   c0.038,0.077,0.114,0.114,0.191,0.077l0,0c0.077-0.038,0.114-0.114,0.077-0.19l0,0c-0.038-0.077-0.114-0.114-0.191-0.077l0,0   C46.497,165.774,46.46,165.85,46.497,165.926z M50.008,164.478c0.038,0.077,0.114,0.114,0.191,0.077   c0.077-0.037,0.114-0.114,0.077-0.19c-0.038-0.077-0.114-0.114-0.191-0.077l0,0C50.008,164.326,49.969,164.402,50.008,164.478z    M53.556,163.03c0.038,0.077,0.114,0.114,0.191,0.077l0,0c0.077-0.038,0.114-0.114,0.077-0.19   c-0.038-0.077-0.114-0.114-0.191-0.077l0,0C53.556,162.878,53.518,162.955,53.556,163.03L53.556,163.03L53.556,163.03z    M57.066,161.583c0.038,0.077,0.114,0.114,0.191,0.077l0,0c0.077-0.038,0.114-0.114,0.077-0.229   c-0.038-0.077-0.114-0.114-0.191-0.077C57.104,161.43,57.066,161.507,57.066,161.583L57.066,161.583L57.066,161.583z    M57.905,177.432c0.077,0.038,0.152,0,0.191-0.077c0.038-0.077,0-0.152-0.077-0.19s-0.152,0-0.191,0.077l0,0   C57.791,177.28,57.829,177.395,57.905,177.432L57.905,177.432L57.905,177.432z M59.355,173.889c0.077,0.038,0.191,0,0.229-0.077   c0.038-0.077,0-0.19-0.077-0.19c-0.077-0.038-0.152,0-0.191,0.077l0,0C59.241,173.774,59.279,173.851,59.355,173.889   L59.355,173.889L59.355,173.889z M60.843,170.384c0.077,0.038,0.152,0,0.191-0.077l0,0c0.038-0.077,0-0.19-0.077-0.229   c-0.077-0.038-0.191,0-0.229,0.077C60.729,170.27,60.766,170.346,60.843,170.384L60.843,170.384z M62.331,166.878   c0.077,0.038,0.152,0,0.191-0.077l0,0c0.038-0.077,0-0.19-0.077-0.229c-0.077-0.038-0.152,0-0.191,0.077l0,0   C62.216,166.726,62.255,166.84,62.331,166.878L62.331,166.878z M73.891,177.395c0.038,0.077,0.114,0.114,0.191,0.077l0,0   c0.077-0.038,0.114-0.114,0.077-0.19l0,0c-0.038-0.077-0.114-0.114-0.191-0.077C73.891,177.204,73.853,177.28,73.891,177.395   L73.891,177.395L73.891,177.395z M52.411,171.26c0.077,0.077,0.152,0.077,0.229,0s0.077-0.152,0-0.229s-0.152-0.077-0.229,0   C52.335,171.07,52.335,171.184,52.411,171.26C52.411,171.222,52.411,171.26,52.411,171.26L52.411,171.26z M55.12,168.555   c0.038,0.038,0.114,0.038,0.191,0l0,0h0.038c0.038-0.038,0.038-0.077,0.038-0.152c0-0.038-0.038-0.077-0.038-0.077   c-0.077-0.077-0.152-0.077-0.229,0C55.043,168.403,55.043,168.478,55.12,168.555L55.12,168.555z M57.829,165.888   c0.077,0.038,0.152,0.038,0.229,0c0.077-0.077,0.077-0.152,0-0.229s-0.152-0.077-0.229,0   C57.753,165.698,57.753,165.811,57.829,165.888L57.829,165.888L57.829,165.888z M60.538,163.183c0.038,0.077,0.152,0.077,0.191,0   l0,0c0.077-0.077,0.077-0.152,0-0.229l0,0c-0.077-0.077-0.152-0.077-0.229,0C60.462,163.03,60.462,163.107,60.538,163.183   L60.538,163.183L60.538,163.183z M65.803,176.861c0,0.077,0.077,0.152,0.152,0.152c0.077,0,0.152-0.077,0.152-0.152   c0-0.077-0.077-0.152-0.152-0.152C65.879,176.708,65.803,176.785,65.803,176.861L65.803,176.861z M65.803,173.051   c0,0.077,0.077,0.152,0.152,0.152l0,0c0.077,0,0.152-0.038,0.152-0.152l0,0c0-0.077-0.077-0.152-0.152-0.152   C65.879,172.899,65.803,172.974,65.803,173.051L65.803,173.051z M37.112,178.347c0.114,0.114,0.305,0.152,0.42,0.038l0,0   c0.114-0.114,0.152-0.305,0.038-0.419l0,0c-0.114-0.114-0.305-0.152-0.42-0.038l0,0C36.998,178.041,36.998,178.232,37.112,178.347   L37.112,178.347z M42.568,173.622c0.114,0.114,0.305,0.152,0.42,0.038c0.114-0.114,0.152-0.304,0.038-0.419l0,0   c-0.114-0.114-0.305-0.152-0.42-0.038l0,0C42.453,173.318,42.453,173.508,42.568,173.622z M48.024,168.898   c0.114,0.114,0.305,0.152,0.42,0.038c0.114-0.114,0.152-0.305,0.038-0.419s-0.305-0.152-0.42-0.038   C47.947,168.555,47.909,168.745,48.024,168.898C48.024,168.86,48.024,168.898,48.024,168.898L48.024,168.898z M53.479,164.136   c0.077,0.077,0.229,0.114,0.305,0.077c0.038,0,0.077-0.038,0.114-0.038c0.038-0.038,0.077-0.077,0.077-0.152l0,0   c0.038-0.114,0-0.19-0.077-0.267c-0.114-0.114-0.305-0.152-0.42-0.038l0,0C53.404,163.831,53.365,164.021,53.479,164.136   L53.479,164.136z M58.821,196.482c0,0.152,0.114,0.305,0.267,0.305c0.152,0,0.305-0.114,0.305-0.267l0,0   c0-0.152-0.114-0.305-0.267-0.305C58.973,196.177,58.821,196.292,58.821,196.482L58.821,196.482L58.821,196.482z M59.317,189.281   c0,0.152,0.114,0.305,0.267,0.305c0.152,0,0.305-0.114,0.305-0.267l0,0c0-0.152-0.114-0.305-0.267-0.305l0,0   C59.508,188.977,59.355,189.091,59.317,189.281L59.317,189.281z M59.851,182.043c0,0.152,0.114,0.304,0.267,0.304l0,0   c0.152,0,0.305-0.114,0.305-0.267l0,0c0-0.152-0.114-0.304-0.267-0.343C60.004,181.776,59.851,181.89,59.851,182.043   L59.851,182.043z M60.347,174.841c0,0.152,0.114,0.304,0.267,0.304c0.152,0,0.306-0.114,0.306-0.267   c0-0.152-0.114-0.304-0.267-0.304l0,0C60.5,174.537,60.347,174.651,60.347,174.841L60.347,174.841L60.347,174.841z M60.843,167.641   c0,0.152,0.114,0.304,0.267,0.304c0.152,0,0.305-0.114,0.305-0.267l0,0c0-0.152-0.114-0.304-0.267-0.304l0,0   C60.995,167.336,60.881,167.45,60.843,167.641L60.843,167.641z M33.793,165.888c0.038,0.152,0.229,0.229,0.381,0.19   s0.229-0.229,0.191-0.381c-0.038-0.152-0.229-0.229-0.381-0.19C33.831,165.584,33.755,165.736,33.793,165.888L33.793,165.888   L33.793,165.888z M40.66,163.602c0.038,0.152,0.191,0.229,0.381,0.19c0.152-0.038,0.229-0.19,0.191-0.381c0,0,0,0,0-0.038   c-0.038-0.152-0.229-0.229-0.381-0.19C40.699,163.298,40.622,163.45,40.66,163.602z M47.527,161.317   c0.038,0.152,0.229,0.229,0.381,0.19l0,0c0.152-0.038,0.229-0.229,0.191-0.381l0,0c-0.038-0.152-0.229-0.229-0.381-0.19l0,0   C47.566,161.011,47.452,161.163,47.527,161.317L47.527,161.317z M45.086,189.396c0.152,0.077,0.343,0,0.381-0.152   c0.077-0.152,0-0.343-0.152-0.381c-0.152-0.077-0.305,0-0.381,0.152S44.933,189.319,45.086,189.396L45.086,189.396z    M48.291,182.918c0.152,0.077,0.343,0,0.381-0.152c0.077-0.152,0-0.343-0.152-0.381c-0.152-0.077-0.306,0-0.381,0.152   C48.101,182.69,48.138,182.843,48.291,182.918L48.291,182.918z M51.534,176.48c0.152,0.077,0.343,0,0.42-0.152   c0.077-0.152,0-0.305-0.152-0.381c-0.152-0.077-0.343-0.038-0.42,0.114S51.381,176.403,51.534,176.48L51.534,176.48z    M54.777,170.003c0.152,0.077,0.305,0.038,0.381-0.114l0,0c0.077-0.152,0.038-0.343-0.114-0.381   c-0.152-0.077-0.343-0.038-0.381,0.114l0,0C54.548,169.736,54.625,169.926,54.777,170.003   C54.739,170.003,54.777,170.003,54.777,170.003L54.777,170.003z M57.982,163.526c0.152,0.077,0.343,0,0.42-0.152   c0.077-0.152,0-0.343-0.152-0.381c-0.152-0.077-0.305,0-0.381,0.114C57.791,163.259,57.868,163.45,57.982,163.526L57.982,163.526   L57.982,163.526z M72.518,191.415c0.038,0.152,0.229,0.229,0.381,0.19c0.152-0.038,0.229-0.229,0.191-0.381l0,0   c-0.038-0.152-0.191-0.229-0.343-0.19c0,0,0,0-0.038,0C72.556,191.071,72.48,191.262,72.518,191.415L72.518,191.415z    M70.229,184.556c0.077,0.152,0.229,0.229,0.381,0.19c0.152-0.038,0.229-0.229,0.191-0.381s-0.229-0.229-0.381-0.19l0,0   C70.267,184.214,70.19,184.366,70.229,184.556L70.229,184.556L70.229,184.556z M67.939,177.699c0.038,0.152,0.191,0.229,0.343,0.19   l0,0c0.152-0.038,0.229-0.229,0.191-0.381l0,0c-0.038-0.152-0.229-0.229-0.381-0.19C67.939,177.356,67.901,177.547,67.939,177.699   L67.939,177.699L67.939,177.699z M65.65,170.841c0.038,0.152,0.229,0.229,0.381,0.19c0.152-0.038,0.229-0.19,0.191-0.343l0,0   c-0.038-0.152-0.229-0.229-0.381-0.19C65.688,170.498,65.613,170.689,65.65,170.841L65.65,170.841z M29.672,162.421   c0.038-0.077,0.077-0.114,0.038-0.19c0-0.038-0.038-0.077-0.077-0.114C29.672,162.192,29.672,162.307,29.672,162.421   L29.672,162.421z M35.472,160.897c0.038,0.152,0.152,0.229,0.305,0.19l0,0c0.152-0.038,0.229-0.19,0.191-0.305   c-0.038-0.152-0.191-0.229-0.305-0.19C35.548,160.592,35.434,160.744,35.472,160.897L35.472,160.897L35.472,160.897z    M41.767,159.45c0.038,0.152,0.152,0.229,0.305,0.19c0,0,0,0,0.038,0c0.152-0.038,0.229-0.19,0.191-0.304   c-0.038-0.152-0.191-0.229-0.305-0.19C41.882,159.184,41.729,159.297,41.767,159.45L41.767,159.45z M38.791,186.081   c0.114,0.077,0.305,0.038,0.381-0.077c0.077-0.114,0.038-0.304-0.077-0.381c-0.114-0.077-0.305-0.038-0.381,0.077   C38.638,185.814,38.677,186.004,38.791,186.081z M42.224,180.595c0.114,0.077,0.305,0.038,0.381-0.077   c0.077-0.115,0.038-0.305-0.077-0.381c-0.114-0.077-0.305-0.038-0.381,0.077l0,0C42.072,180.366,42.11,180.518,42.224,180.595   L42.224,180.595L42.224,180.595z M45.544,174.956c0,0.077,0.038,0.114,0.114,0.152c0.114,0.077,0.305,0.038,0.381-0.077   c0.077-0.114,0.038-0.304-0.077-0.381l0,0c-0.077-0.038-0.152-0.038-0.267,0l0,0c-0.038,0-0.077,0.038-0.114,0.114   C45.505,174.803,45.505,174.88,45.544,174.956L45.544,174.956z M49.092,169.66c0.114,0.077,0.305,0.038,0.381-0.077   c0.077-0.114,0.038-0.304-0.077-0.381c-0.114-0.077-0.305-0.038-0.381,0.077C48.902,169.393,48.939,169.584,49.092,169.66   L49.092,169.66L49.092,169.66z M52.488,164.174c0.114,0.077,0.305,0.038,0.381-0.114c0.077-0.114,0.038-0.267-0.077-0.381   c-0.114-0.077-0.305-0.038-0.381,0.077C52.335,163.945,52.374,164.098,52.488,164.174L52.488,164.174z M65.498,190.386   c0.038,0.152,0.191,0.229,0.343,0.19c0.152-0.038,0.229-0.152,0.191-0.304l0,0c-0.038-0.152-0.152-0.229-0.305-0.19l0,0   C65.574,190.081,65.459,190.234,65.498,190.386L65.498,190.386z M64.048,184.1c0.038,0.152,0.191,0.229,0.305,0.19   c0.152-0.038,0.229-0.152,0.191-0.305l0,0c-0.038-0.152-0.152-0.229-0.305-0.19l0,0C64.124,183.795,64.01,183.947,64.048,184.1   L64.048,184.1z M62.598,177.814c0.038,0.152,0.152,0.229,0.305,0.19l0,0c0.152-0.038,0.229-0.152,0.191-0.305c0,0,0,0,0-0.038   c-0.038-0.152-0.152-0.229-0.305-0.19l0,0C62.674,177.508,62.56,177.661,62.598,177.814L62.598,177.814z M61.149,171.526   c0.038,0.152,0.191,0.229,0.343,0.19c0.152-0.038,0.229-0.19,0.191-0.304c-0.038-0.152-0.191-0.229-0.305-0.19   C61.224,171.222,61.11,171.374,61.149,171.526L61.149,171.526z M59.699,165.24c0.038,0.152,0.191,0.229,0.305,0.19   c0.152-0.038,0.229-0.19,0.191-0.304l0,0c-0.038-0.152-0.191-0.229-0.343-0.19C59.736,164.936,59.661,165.088,59.699,165.24   L59.699,165.24z M36.083,170.613c0.077,0.114,0.229,0.152,0.381,0.077l0,0c0.114-0.077,0.152-0.229,0.077-0.343l0,0   c-0.077-0.114-0.229-0.152-0.381-0.077l0,0C36.044,170.346,36.006,170.498,36.083,170.613L36.083,170.613z M41.347,166.878   c0.077,0.114,0.229,0.152,0.381,0.077c0.114-0.077,0.152-0.267,0.077-0.381c-0.077-0.114-0.267-0.152-0.381-0.077   C41.309,166.574,41.271,166.765,41.347,166.878L41.347,166.878L41.347,166.878z M46.612,163.145   c0.077,0.114,0.267,0.152,0.381,0.077c0.114-0.077,0.152-0.267,0.077-0.381c-0.077-0.114-0.267-0.152-0.381-0.038l0,0   C46.574,162.84,46.536,162.992,46.612,163.145C46.612,163.107,46.612,163.145,46.612,163.145L46.612,163.145z M51.648,187.452   c-0.038,0.152,0.077,0.267,0.229,0.304c0.152,0.038,0.267-0.077,0.305-0.229c0.038-0.152-0.077-0.267-0.229-0.304   C51.801,187.186,51.687,187.3,51.648,187.452L51.648,187.452z M52.717,181.052c-0.038,0.152,0.077,0.267,0.191,0.305l0,0   c0.152,0.038,0.267-0.077,0.305-0.229c0.038-0.152-0.077-0.267-0.229-0.305C52.869,180.823,52.755,180.937,52.717,181.052   L52.717,181.052z M53.785,174.689c-0.038,0.152,0.077,0.267,0.229,0.305c0.152,0.038,0.267-0.077,0.305-0.229l0,0   c0.038-0.152-0.077-0.267-0.229-0.304C53.938,174.46,53.823,174.574,53.785,174.689z M54.853,168.326   c-0.038,0.152,0.077,0.267,0.229,0.305c0.077,0,0.152,0,0.229-0.077l0,0c0.038-0.038,0.077-0.077,0.077-0.152   c0.038-0.152-0.077-0.267-0.229-0.305C55.006,168.098,54.891,168.212,54.853,168.326L54.853,168.326z M55.921,161.963   c-0.038,0.152,0.077,0.304,0.229,0.304c0.152,0.038,0.267-0.077,0.305-0.229c0-0.038,0-0.077,0-0.114   c-0.038-0.038-0.077-0.077-0.077-0.152c-0.038-0.038-0.077-0.038-0.114-0.077C56.074,161.736,55.921,161.85,55.921,161.963   L55.921,161.963z M75.837,182.271c0.077,0.114,0.229,0.152,0.343,0.077l0,0c0.114-0.077,0.152-0.229,0.077-0.381l0,0   c-0.077-0.114-0.267-0.152-0.381-0.038C75.761,181.966,75.761,182.156,75.837,182.271L75.837,182.271L75.837,182.271z    M72.098,177.013c0.077,0.114,0.267,0.152,0.381,0.077s0.152-0.267,0.038-0.381c-0.077-0.114-0.229-0.152-0.381-0.077   C72.022,176.708,71.983,176.899,72.098,177.013C72.06,177.013,72.098,177.013,72.098,177.013L72.098,177.013z M39.21,170.08   c0.077,0.077,0.152,0.038,0.229,0c0.077-0.077,0.038-0.152,0-0.229c-0.077-0.077-0.152-0.038-0.229,0l0,0   C39.172,169.926,39.172,170.003,39.21,170.08L39.21,170.08z M41.804,167.298c0.077,0.077,0.152,0.038,0.229,0   c0.077-0.077,0.038-0.152,0-0.229c-0.077-0.077-0.152-0.038-0.229,0l0,0C41.767,167.145,41.767,167.222,41.804,167.298   L41.804,167.298z M44.438,164.517c0.077,0.038,0.152,0.038,0.229,0s0.077-0.152,0-0.19l0,0c-0.077-0.038-0.152-0.038-0.229,0   C44.361,164.326,44.361,164.44,44.438,164.517C44.4,164.517,44.438,164.517,44.438,164.517L44.438,164.517z M47.032,161.736   c0.077,0.038,0.152,0.038,0.229,0c0.077-0.077,0.077-0.152,0-0.229l0,0c-0.077-0.038-0.152-0.038-0.229,0   C46.955,161.583,46.955,161.659,47.032,161.736L47.032,161.736z M54.205,175.603c0,0.077,0.077,0.152,0.152,0.152   c0.077,0,0.152-0.077,0.152-0.152c0-0.077-0.077-0.152-0.152-0.152l0,0C54.281,175.413,54.205,175.489,54.205,175.603   L54.205,175.603L54.205,175.603z M54.052,171.793c0,0.077,0.077,0.152,0.191,0.152c0.077,0,0.152-0.077,0.152-0.152l0,0   c0-0.077-0.077-0.152-0.152-0.152l0,0C54.128,171.603,54.052,171.68,54.052,171.793L54.052,171.793L54.052,171.793z    M53.938,167.984c0,0.077,0.077,0.152,0.152,0.152c0.077,0,0.152-0.077,0.152-0.152l0,0c0-0.077-0.077-0.152-0.152-0.152l0,0   C54.014,167.832,53.938,167.907,53.938,167.984L53.938,167.984L53.938,167.984z M53.823,164.174v0.038   c0.038,0.077,0.077,0.114,0.152,0.114c0.077,0,0.152-0.077,0.152-0.152l0,0c0-0.077-0.038-0.114-0.114-0.152l0,0h-0.038   C53.861,164.021,53.823,164.098,53.823,164.174L53.823,164.174L53.823,164.174z M36.12,162.307   c0.038,0.077,0.114,0.114,0.191,0.077c0.077-0.038,0.114-0.152,0.077-0.229c-0.038-0.077-0.114-0.114-0.191-0.077l0,0   C36.12,162.154,36.12,162.23,36.12,162.307L36.12,162.307z M39.592,160.744c0.038,0.077,0.114,0.114,0.191,0.077   c0.077-0.037,0.114-0.114,0.077-0.19l0,0c-0.038-0.077-0.114-0.114-0.191-0.077l0,0C39.592,160.554,39.553,160.669,39.592,160.744   L39.592,160.744L39.592,160.744z M43.064,159.144c0.038,0.077,0.114,0.114,0.191,0.077l0,0c0.077-0.038,0.114-0.114,0.077-0.19l0,0   c-0.038-0.077-0.114-0.114-0.191-0.077l0,0C43.064,158.992,43.025,159.069,43.064,159.144L43.064,159.144z M46.803,172.441   c0.077,0.038,0.152,0,0.191-0.077c0.038-0.077,0-0.152-0.077-0.19l0,0c-0.077-0.038-0.152,0-0.191,0.077l0,0   C46.688,172.327,46.726,172.403,46.803,172.441L46.803,172.441z M48.138,168.86c0.077,0.038,0.152,0,0.191-0.077   c0.038-0.077,0-0.152-0.077-0.19s-0.152,0-0.191,0.077l0,0C48.024,168.745,48.062,168.822,48.138,168.86L48.138,168.86   L48.138,168.86z M49.474,165.278c0.077,0.038,0.152,0,0.191-0.077l0,0c0.038-0.077,0-0.19-0.077-0.19   c-0.077-0.038-0.152,0-0.191,0.077C49.359,165.165,49.397,165.24,49.474,165.278L49.474,165.278L49.474,165.278z M50.809,161.736   c0.077,0.038,0.152,0,0.191-0.077l0,0c0.038-0.077,0-0.19-0.077-0.19c-0.077-0.038-0.152,0-0.191,0.077   C50.695,161.621,50.733,161.697,50.809,161.736L50.809,161.736z M61.301,171.946c0.038,0.077,0.114,0.114,0.191,0.077   c0.077-0.037,0.114-0.114,0.077-0.19c-0.038-0.077-0.114-0.114-0.191-0.077l0,0C61.301,171.793,61.263,171.87,61.301,171.946   L61.301,171.946L61.301,171.946z M59.699,168.478c0.038,0.077,0.152,0.114,0.229,0.077c0.077-0.038,0.114-0.114,0.077-0.19l0,0   c-0.038-0.077-0.114-0.114-0.191-0.077l0,0C59.699,168.326,59.699,168.403,59.699,168.478L59.699,168.478L59.699,168.478z    M58.134,165.05c0.038,0.077,0.152,0.114,0.229,0.077c0.077-0.038,0.114-0.152,0.077-0.229l0,0   c-0.038-0.077-0.152-0.114-0.229-0.077C58.134,164.859,58.097,164.974,58.134,165.05z M56.57,161.583   c0.038,0.077,0.114,0.114,0.191,0.077l0,0c0.038-0.038,0.077-0.077,0.077-0.114c0-0.038,0-0.077,0-0.077   c-0.038-0.077-0.114-0.114-0.191-0.077c-0.038,0-0.077,0.038-0.077,0.077l0,0C56.532,161.469,56.532,161.544,56.57,161.583   L56.57,161.583z M30.206,157.811c0.038,0.077,0.114,0.152,0.229,0.114c0.114-0.038,0.152-0.114,0.152-0.229   c-0.038-0.114-0.114-0.152-0.229-0.114l0,0C30.245,157.621,30.169,157.696,30.206,157.811L30.206,157.811L30.206,157.811z    M36.501,173.851c0.077,0.038,0.191,0.038,0.229-0.038l0,0c0.038-0.077,0.038-0.19-0.038-0.229l0,0   c-0.077-0.038-0.191-0.038-0.229,0.038l0,0C36.387,173.699,36.426,173.813,36.501,173.851L36.501,173.851z M38.829,170.193   c0.077,0.038,0.191,0.038,0.267-0.077c0.038-0.077,0.038-0.19-0.038-0.267c-0.077-0.038-0.191-0.038-0.229,0.038l0,0   C38.752,170.003,38.752,170.117,38.829,170.193L38.829,170.193L38.829,170.193z M41.194,166.536   c0.077,0.038,0.191,0.038,0.229-0.038c0,0,0.038,0,0-0.038c0.038-0.077,0.038-0.19-0.038-0.267   c-0.077-0.038-0.191-0.038-0.267,0.038C41.08,166.384,41.118,166.498,41.194,166.536L41.194,166.536z M43.522,162.878   c0.077,0.038,0.191,0.038,0.267-0.038c0.077-0.077,0.038-0.19-0.038-0.267l0,0c-0.038-0.038-0.114-0.038-0.191,0   c-0.038,0-0.038,0-0.038,0l-0.038,0.038C43.408,162.726,43.445,162.84,43.522,162.878L43.522,162.878z M54.471,176.937   c0,0.077,0.114,0.152,0.191,0.152c0,0,0,0,0.038,0c0.077-0.038,0.152-0.114,0.114-0.229c-0.038-0.077-0.114-0.152-0.229-0.152   C54.471,176.747,54.433,176.861,54.471,176.937L54.471,176.937L54.471,176.937z M53.518,172.708   c0.038,0.114,0.114,0.152,0.229,0.114l0,0c0.077-0.038,0.152-0.114,0.114-0.229c-0.038-0.077-0.114-0.152-0.229-0.152   C53.556,172.518,53.479,172.593,53.518,172.708L53.518,172.708z M52.602,168.441c0,0.077,0.077,0.152,0.191,0.152c0,0,0,0,0.038,0   c0.077-0.038,0.152-0.114,0.114-0.229c-0.038-0.077-0.114-0.152-0.229-0.152C52.64,168.251,52.564,168.365,52.602,168.441   L52.602,168.441z M51.648,164.211c0,0.077,0.077,0.152,0.191,0.152c0,0,0,0,0.038,0c0.077-0.038,0.152-0.114,0.114-0.229   c-0.038-0.114-0.114-0.152-0.229-0.152C51.687,164.021,51.648,164.136,51.648,164.211L51.648,164.211z M31.542,165.85   c0.038,0.077,0.152,0.114,0.267,0.038l0,0c0.077-0.077,0.077-0.152,0.038-0.267c-0.038-0.077-0.152-0.114-0.267-0.038l0,0   C31.504,165.659,31.504,165.774,31.542,165.85L31.542,165.85z M35.128,163.373c0.038,0.077,0.152,0.114,0.229,0.038   c0.077-0.038,0.114-0.152,0.038-0.267l0,0c-0.077-0.077-0.191-0.114-0.267-0.038C35.09,163.183,35.052,163.298,35.128,163.373   L35.128,163.373z M38.677,160.897c0.038,0.077,0.152,0.114,0.229,0.038l0,0c0.077-0.038,0.114-0.152,0.077-0.229l0,0   c-0.038-0.077-0.152-0.114-0.229-0.038C38.638,160.669,38.638,160.783,38.677,160.897   C38.677,160.859,38.677,160.859,38.677,160.897L38.677,160.897z M45.544,174.956c0.038,0,0.038,0.038,0.077,0.038   c0.114,0,0.191-0.038,0.191-0.152l0,0c0-0.077-0.038-0.19-0.152-0.19l0,0c-0.114,0-0.191,0.038-0.191,0.152l0,0   C45.467,174.88,45.467,174.918,45.544,174.956L45.544,174.956z M46.231,170.498c-0.038,0.077,0.038,0.19,0.152,0.19l0,0   c0.114,0,0.191-0.038,0.229-0.152c0-0.114-0.038-0.19-0.152-0.229C46.345,170.346,46.269,170.422,46.231,170.498L46.231,170.498z    M46.994,166.231c0,0.114,0.038,0.19,0.152,0.19s0.191-0.038,0.191-0.152s-0.038-0.19-0.152-0.19l0,0   C47.108,166.078,46.994,166.155,46.994,166.231L46.994,166.231L46.994,166.231z M47.757,161.963c0,0.114,0.038,0.19,0.152,0.19   c0.077,0.038,0.191-0.038,0.191-0.114l0,0c0.038-0.077-0.038-0.19-0.152-0.19l0,0C47.872,161.811,47.757,161.85,47.757,161.963   L47.757,161.963L47.757,161.963z M61.797,171.489c0.038,0.077,0.152,0.114,0.267,0.038l0,0c0.077-0.038,0.114-0.152,0.038-0.229   c-0.038-0.077-0.152-0.114-0.229-0.077l0,0C61.759,171.299,61.721,171.413,61.797,171.489L61.797,171.489z M59.317,167.945   c0.038,0.077,0.152,0.114,0.229,0.038l0,0c0.077-0.038,0.114-0.152,0.077-0.229l0,0c-0.077-0.077-0.152-0.114-0.267-0.038   C59.279,167.717,59.241,167.832,59.317,167.945L59.317,167.945L59.317,167.945z M56.799,164.365   c0.038,0.077,0.152,0.114,0.267,0.038c0.077-0.038,0.114-0.152,0.038-0.229c-0.038-0.077-0.152-0.114-0.229-0.038l0,0   C56.761,164.174,56.761,164.288,56.799,164.365L56.799,164.365z M30.015,163.64c0.114,0.152,0.305,0.152,0.42,0.038   c0.114-0.114,0.152-0.304,0.077-0.419c-0.114-0.152-0.305-0.152-0.42-0.077C29.94,163.298,29.94,163.488,30.015,163.64   L30.015,163.64z M36.044,159.259c0.114,0.152,0.305,0.152,0.42,0.077c0.152-0.114,0.152-0.305,0.077-0.419l0,0   c-0.114-0.152-0.305-0.152-0.42-0.077C35.967,158.916,35.967,159.106,36.044,159.259L36.044,159.259z M39.821,185.548   c-0.038,0.152,0.077,0.343,0.267,0.343c0.152,0.038,0.343-0.077,0.343-0.267c0.038-0.152-0.077-0.343-0.267-0.343   C40.012,185.281,39.859,185.395,39.821,185.548L39.821,185.548z M41.003,178.195c-0.038,0.152,0.114,0.343,0.267,0.343   c0.152,0.038,0.305-0.114,0.343-0.267c0.038-0.153-0.114-0.304-0.267-0.343C41.157,177.928,41.003,178.041,41.003,178.195z    M42.149,170.841c-0.038,0.152,0.077,0.343,0.267,0.343c0.152,0.038,0.343-0.077,0.343-0.267c0.038-0.152-0.077-0.343-0.267-0.343   C42.339,170.574,42.187,170.689,42.149,170.841L42.149,170.841z M43.293,163.488c-0.038,0.152,0.114,0.343,0.267,0.343   c0.152,0.038,0.306-0.077,0.343-0.267c0.038-0.152-0.077-0.304-0.267-0.343C43.483,163.183,43.331,163.298,43.293,163.488   L43.293,163.488z M69.275,185.776c0.114,0.152,0.305,0.152,0.458,0.077c0.152-0.114,0.152-0.305,0.038-0.419   s-0.305-0.152-0.42-0.077C69.198,185.471,69.16,185.662,69.275,185.776L69.275,185.776z M64.849,179.756   c0.114,0.152,0.305,0.152,0.42,0.077c0.152-0.114,0.152-0.304,0.077-0.419c-0.077-0.114-0.305-0.152-0.42-0.077l0,0   C64.811,179.452,64.773,179.642,64.849,179.756L64.849,179.756z M60.462,173.737c0.114,0.152,0.305,0.152,0.42,0.077   c0.152-0.114,0.152-0.304,0.077-0.457c-0.114-0.152-0.305-0.152-0.42-0.038C60.423,173.432,60.385,173.622,60.462,173.737   L60.462,173.737z M56.074,167.717c0.114,0.152,0.305,0.152,0.42,0.077c0.152-0.114,0.152-0.305,0.077-0.457   c-0.114-0.152-0.305-0.152-0.42-0.077l0,0C55.998,167.374,55.96,167.565,56.074,167.717L56.074,167.717L56.074,167.717z    M51.687,161.697c0.114,0.152,0.305,0.152,0.42,0.038c0.114-0.114,0.152-0.305,0.077-0.419c-0.114-0.152-0.305-0.152-0.42-0.077   C51.61,161.354,51.572,161.583,51.687,161.697L51.687,161.697z M33.106,171.946c0.152,0.077,0.343,0.038,0.42-0.114   s0.038-0.343-0.114-0.419c-0.152-0.077-0.343-0.038-0.42,0.114C32.915,171.641,32.954,171.832,33.106,171.946z M36.959,165.545   c0.152,0.077,0.343,0.038,0.42-0.077l0,0c0.077-0.152,0.038-0.343-0.114-0.419c-0.152-0.077-0.343-0.038-0.42,0.114l0,0   C36.769,165.278,36.845,165.469,36.959,165.545L36.959,165.545z M40.889,159.221c0.152,0.077,0.343,0.038,0.42-0.114l0,0   c0.077-0.152,0.038-0.305-0.114-0.381c0,0,0,0,0-0.038c-0.114-0.077-0.305-0.038-0.381,0.077v0.038   C40.699,158.916,40.737,159.106,40.889,159.221C40.851,159.183,40.851,159.221,40.889,159.221L40.889,159.221z M53.327,189.129   c0.038,0.152,0.229,0.267,0.381,0.229s0.267-0.229,0.229-0.381c-0.038-0.152-0.191-0.267-0.343-0.229l0,0   C53.404,188.786,53.289,188.938,53.327,189.129L53.327,189.129z M51.572,181.852c0.038,0.152,0.191,0.267,0.381,0.229l0,0   c0.152-0.038,0.267-0.19,0.229-0.381l0,0c-0.038-0.152-0.191-0.267-0.381-0.229C51.648,181.547,51.534,181.699,51.572,181.852z    M49.855,174.613c0.038,0.152,0.191,0.267,0.343,0.229l0,0c0.152-0.038,0.267-0.19,0.229-0.381   c-0.038-0.152-0.191-0.267-0.381-0.229C49.894,174.27,49.817,174.46,49.855,174.613L49.855,174.613z M48.101,167.374   c0.038,0.152,0.229,0.267,0.381,0.229c0.152-0.038,0.267-0.19,0.229-0.381c-0.038-0.152-0.191-0.267-0.381-0.229   C48.138,167.032,48.062,167.222,48.101,167.374L48.101,167.374L48.101,167.374z M30.703,167.069   c0.152,0.077,0.343,0.038,0.42-0.077c0.077-0.152,0.038-0.343-0.077-0.419c-0.114-0.077-0.305-0.077-0.42,0.077l0,0   C30.512,166.765,30.55,166.955,30.703,167.069L30.703,167.069L30.703,167.069z M34.823,160.897c0.152,0.077,0.343,0.038,0.42-0.077   c0.077-0.152,0.038-0.343-0.077-0.419c-0.114-0.077-0.305-0.077-0.42,0.077l0,0C34.633,160.63,34.67,160.821,34.823,160.897   L34.823,160.897L34.823,160.897z M48.825,191.491c0.038,0.152,0.191,0.267,0.381,0.229c0.152-0.038,0.267-0.19,0.229-0.381   c-0.038-0.152-0.191-0.267-0.343-0.229C48.902,191.186,48.787,191.338,48.825,191.491z M47.375,184.214   c0.038,0.152,0.191,0.267,0.381,0.229c0.152-0.038,0.267-0.19,0.229-0.343c-0.038-0.152-0.191-0.267-0.381-0.267   C47.452,183.91,47.337,184.062,47.375,184.214z M45.925,176.937c0.038,0.152,0.191,0.267,0.381,0.229   c0.152-0.038,0.267-0.19,0.229-0.343c-0.038-0.152-0.191-0.267-0.343-0.229C46.04,176.632,45.925,176.785,45.925,176.937   L45.925,176.937z M44.514,169.66c0.038,0.152,0.191,0.267,0.343,0.229l0,0c0.152-0.038,0.267-0.19,0.229-0.343   c-0.038-0.152-0.191-0.267-0.343-0.229S44.475,169.507,44.514,169.66L44.514,169.66L44.514,169.66z M43.064,162.383   c0.038,0.152,0.191,0.267,0.343,0.229l0,0c0.038,0,0.077-0.038,0.077-0.038h0.038c0.077-0.077,0.152-0.19,0.114-0.305   c-0.038-0.152-0.191-0.267-0.343-0.229C43.14,162.04,43.025,162.23,43.064,162.383L43.064,162.383L43.064,162.383z M62.636,166.117   c0.152,0.077,0.343,0.038,0.42-0.077c0.077-0.152,0.038-0.343-0.077-0.419c-0.114-0.077-0.305-0.077-0.42,0.077l0,0   C62.445,165.811,62.484,166.003,62.636,166.117L62.636,166.117L62.636,166.117z M56.341,161.811c0,0.038,0.038,0.114,0.077,0.152   c0,0,0,0.038,0.038,0.038c0.152,0.114,0.343,0.077,0.42-0.077c0.077-0.114,0.077-0.305-0.038-0.381   c0-0.038-0.038-0.038-0.038-0.038c-0.077-0.038-0.152-0.077-0.229-0.038l0,0c-0.077,0-0.152,0.038-0.191,0.114   C56.341,161.621,56.303,161.736,56.341,161.811L56.341,161.811z M34.823,180.099c-0.038,0.152,0.077,0.305,0.229,0.343l0,0   c0.152,0.038,0.343-0.077,0.381-0.229c0.038-0.152-0.077-0.343-0.229-0.381C35.014,179.833,34.861,179.908,34.823,180.099   L34.823,180.099z M36.273,172.822c-0.038,0.152,0.077,0.343,0.229,0.381c0.152,0.038,0.343-0.077,0.381-0.229l0,0   c0.038-0.152-0.077-0.343-0.229-0.381C36.464,172.518,36.311,172.632,36.273,172.822C36.273,172.784,36.273,172.822,36.273,172.822   L36.273,172.822z M37.722,165.545c-0.038,0.152,0.077,0.343,0.267,0.343c0.152,0.038,0.305-0.077,0.343-0.229   c0.038-0.152-0.077-0.343-0.229-0.381C37.951,165.24,37.76,165.355,37.722,165.545z M61.339,182.309   c0.114,0.152,0.305,0.19,0.42,0.077c0.152-0.077,0.191-0.267,0.077-0.419c-0.077-0.152-0.267-0.19-0.42-0.114l0,0   C61.301,181.966,61.263,182.156,61.339,182.309L61.339,182.309L61.339,182.309z M57.219,176.137c0.114,0.152,0.305,0.19,0.42,0.077   c0.152-0.077,0.191-0.267,0.077-0.419c-0.077-0.152-0.267-0.19-0.42-0.114l0,0C57.18,175.794,57.142,175.985,57.219,176.137   L57.219,176.137L57.219,176.137z M53.098,169.965c0.114,0.152,0.305,0.19,0.42,0.077c0.152-0.077,0.191-0.267,0.077-0.419   c-0.077-0.152-0.267-0.19-0.42-0.077C53.06,169.622,53.021,169.813,53.098,169.965L53.098,169.965L53.098,169.965z M48.977,163.792   c0.114,0.152,0.305,0.19,0.42,0.077c0.152-0.077,0.191-0.267,0.077-0.419c-0.077-0.152-0.267-0.19-0.42-0.077   C48.939,163.45,48.902,163.64,48.977,163.792L48.977,163.792L48.977,163.792z M31.771,163.526c0.114,0.038,0.267,0,0.305-0.114   c0.038-0.114,0-0.267-0.114-0.304l0,0c-0.114-0.038-0.229,0-0.305,0.114l0,0C31.58,163.336,31.656,163.45,31.771,163.526   L31.771,163.526z M33.869,158.306c0.114,0.038,0.229,0,0.306-0.114l0,0c0.038-0.114,0-0.267-0.114-0.305l0,0   c-0.114-0.038-0.229,0-0.306,0.114l0,0C33.678,158.154,33.716,158.269,33.869,158.306   C33.831,158.306,33.831,158.306,33.869,158.306L33.869,158.306z M48.977,178.689c0.038,0.114,0.191,0.152,0.305,0.114   s0.152-0.19,0.114-0.304c-0.038-0.114-0.152-0.19-0.305-0.114c0,0,0,0-0.038,0C48.977,178.461,48.939,178.575,48.977,178.689   L48.977,178.689z M46.765,173.547c0.038,0.114,0.191,0.152,0.305,0.114s0.152-0.19,0.114-0.304   c-0.038-0.114-0.191-0.19-0.305-0.114l0,0C46.765,173.318,46.726,173.432,46.765,173.547L46.765,173.547z M44.552,168.403   c0.038,0.114,0.191,0.152,0.305,0.114c0.114-0.038,0.152-0.19,0.114-0.305c-0.038-0.115-0.191-0.152-0.305-0.114l0,0   C44.59,168.174,44.514,168.288,44.552,168.403L44.552,168.403z M42.378,163.259c0.038,0.114,0.191,0.152,0.305,0.114l0,0   c0.114-0.038,0.191-0.19,0.114-0.305l0,0c-0.038-0.114-0.191-0.19-0.305-0.114C42.378,162.992,42.301,163.145,42.378,163.259   L42.378,163.259L42.378,163.259z M37.112,178.118c0,0.114,0.114,0.229,0.229,0.229c0.114,0,0.229-0.114,0.229-0.229   s-0.114-0.229-0.229-0.229l0,0C37.188,177.889,37.112,178.004,37.112,178.118L37.112,178.118z M37.036,172.518   c0,0.114,0.114,0.229,0.229,0.229c0.114,0,0.229-0.114,0.229-0.229l0,0c0-0.114-0.077-0.229-0.229-0.229l0,0   C37.15,172.289,37.036,172.403,37.036,172.518L37.036,172.518L37.036,172.518z M36.959,166.955c0,0.114,0.114,0.229,0.229,0.229   l0,0c0.114,0,0.229-0.077,0.229-0.229l0,0c0-0.114-0.114-0.229-0.229-0.229C37.074,166.688,36.959,166.803,36.959,166.955   C36.959,166.917,36.959,166.917,36.959,166.955L36.959,166.955z M36.884,161.354c0,0.114,0.114,0.229,0.229,0.229l0,0   c0.114,0,0.229-0.114,0.229-0.229l0,0c0-0.114-0.114-0.229-0.229-0.229l0,0C36.998,161.126,36.884,161.202,36.884,161.354   L36.884,161.354z M56.951,170.041c0.077,0.077,0.229,0.077,0.305,0l0,0c0.077-0.077,0.114-0.229,0-0.305l0,0   c-0.114-0.077-0.229-0.077-0.343,0C56.837,169.813,56.876,169.926,56.951,170.041L56.951,170.041z M52.946,166.117   c0.114,0.077,0.229,0.077,0.343,0c0.077-0.077,0.077-0.229,0-0.304c-0.077-0.077-0.229-0.077-0.343,0   C52.831,165.888,52.831,166.04,52.946,166.117z M48.939,162.192c0.077,0.077,0.229,0.077,0.305,0l0,0   c0.077-0.077,0.077-0.229,0-0.305s-0.229-0.077-0.305,0l0,0C48.825,161.963,48.825,162.117,48.939,162.192L48.939,162.192   L48.939,162.192z M35.7,165.811c0,0.077,0.077,0.114,0.152,0.114c0.077,0,0.114-0.077,0.114-0.152c0-0.077-0.077-0.114-0.152-0.114   l0,0C35.738,165.659,35.663,165.736,35.7,165.811L35.7,165.811z M35.166,162.802c0,0.077,0.077,0.114,0.152,0.114l0,0   c0.077,0,0.114-0.077,0.114-0.114l0,0c0-0.077-0.077-0.114-0.152-0.114l0,0C35.205,162.65,35.166,162.726,35.166,162.802z    M34.633,159.792c0,0.077,0.077,0.114,0.152,0.114l0,0c0.077,0,0.114-0.077,0.114-0.152c0-0.076-0.077-0.114-0.152-0.114   S34.633,159.716,34.633,159.792L34.633,159.792z M30.015,160.973c0,0.077,0.038,0.152,0.114,0.152c0.077,0,0.152-0.038,0.152-0.114   c0-0.077-0.038-0.152-0.114-0.152C30.13,160.859,30.054,160.897,30.015,160.973L30.015,160.973z M30.703,158.002   c0,0.077,0.038,0.152,0.114,0.152c0.077,0.038,0.152,0,0.152-0.077l0,0c0-0.077-0.038-0.152-0.114-0.152   C30.779,157.887,30.703,157.925,30.703,158.002L30.703,158.002z M40.928,162.117c0.038,0.077,0.114,0.077,0.152,0.038   c0.077-0.038,0.077-0.114,0.038-0.19l0,0c-0.038-0.077-0.114-0.077-0.152-0.038l0,0C40.928,162.002,40.889,162.078,40.928,162.117   L40.928,162.117z M39.287,159.563c0.038,0.077,0.114,0.077,0.191,0.038l0,0c0.077-0.038,0.077-0.114,0.038-0.19   c-0.038-0.077-0.114-0.077-0.191-0.038l0,0C39.287,159.411,39.249,159.488,39.287,159.563L39.287,159.563L39.287,159.563z    M39.287,170.726c0.077,0.114,0.191,0.114,0.305,0.077l0,0c0.077-0.038,0.114-0.152,0.077-0.267l0,0   c-0.038-0.077-0.152-0.114-0.267-0.077l0,0C39.249,170.498,39.21,170.613,39.287,170.726   C39.249,170.726,39.249,170.726,39.287,170.726L39.287,170.726z M36.578,166.422c0.038,0.077,0.152,0.114,0.267,0.077l0,0   c0.114-0.038,0.114-0.19,0.077-0.267l0,0c-0.077-0.114-0.191-0.114-0.305-0.077C36.54,166.193,36.501,166.345,36.578,166.422   L36.578,166.422L36.578,166.422z M33.869,162.154c0.077,0.114,0.191,0.114,0.306,0.077c0.114-0.077,0.114-0.19,0.077-0.267l0,0   c-0.077-0.114-0.191-0.114-0.305-0.077C33.831,161.926,33.831,162.078,33.869,162.154L33.869,162.154z M31.198,157.887   c0.077,0.077,0.191,0.114,0.305,0.077c0.077-0.077,0.114-0.19,0.077-0.305c-0.077-0.114-0.191-0.114-0.267-0.077l0,0   C31.161,157.659,31.122,157.773,31.198,157.887L31.198,157.887z M45.01,161.85c0.077,0.077,0.229,0.038,0.305-0.038l0,0   c0.077-0.077,0.038-0.229-0.038-0.305c-0.077-0.077-0.229-0.038-0.267,0.038C44.895,161.621,44.895,161.773,45.01,161.85   L45.01,161.85z"/>
	
		<linearGradient id="sweater_1_-i2" gradientUnits="userSpaceOnUse" x1="3426.25" y1="3032.353" x2="3443.6948" y2="4631.5063" gradientTransform="matrix(0.0741 0 0 0.0741 -184.2541 -141.1613)">
		<stop offset="0" style="stop-color:#23286B"/>
		<stop offset="1" style="stop-color:#151A4F"/>
	</linearGradient>
	<path id="sweater-i2" fill="url(#sweater_1_-i2)" d="M126.962,56.542c0,0-20.069-1.41-43.15,8.001S58.973,82.298,45.85,88.165   c-13.125,5.867-46.966,14.478-45.821,52.12c0,0,19.267,24.689,91.757,21.336l47.92-92.658   C139.705,68.963,130.357,67.515,126.962,56.542z"/>
	
		<linearGradient id="R_hand_1_-i2" gradientUnits="userSpaceOnUse" x1="5463.3159" y1="4690.4917" x2="4783.7817" y2="4306.8818" gradientTransform="matrix(0.0741 0 0 0.0741 -184.2541 -141.1613)">
		<stop offset="0" style="stop-color:#FFBEB6"/>
		<stop offset="1" style="stop-color:#F2A19C"/>
	</linearGradient>
	<path id="R_hand-i2" fill="url(#R_hand_1_-i2)" d="M241.535,217.208c-9.729,1.829-9.195-2.629-17.36-3.162   c-4.693-0.304-40.899-3.238-56.314-5.372l7.974-32.004c5.761,2.896,26.859,14.63,31.514,15.849   c14.231,3.734,18.351,5.219,21.061,3.048c1.717-1.296,3.739-2.057,5.837-2.248l6.753-0.8c5.8-2.896,6.562-4.725,8.928,0   C252.293,197.244,251.263,215.379,241.535,217.208z"/>
	<path id="R_sleeve-i2" fill="#23286B" d="M141.345,67.02c0,0-9.767,31.698-8.203,53.187s4.121,28.804,19.915,38.557   c12.324,7.62,23.807,13.83,23.807,13.83l-15.109,60.502c0,0-21.29-3.086-30.942-18.364c-10.874-17.183-19.992-17.907-29.682-20.955   c-9.729-3.01-29.568-15.316-24.762-47.853s17.169-56.12,48.415-89.42l0,0"/>
	
		<linearGradient id="neck_1_-i2" gradientUnits="userSpaceOnUse" x1="4168.23" y1="2861.7068" x2="4434.9746" y2="2573.6221" gradientTransform="matrix(0.0741 0 0 0.0741 -184.2541 -141.1613)">
		<stop offset="0" style="stop-color:#FFBEB6"/>
		<stop offset="1" style="stop-color:#F2A19C"/>
	</linearGradient>
	<path id="neck-i2" fill="url(#neck_1_-i2)" d="M150.921,53.685c-2.556,3.238-8.012,10.325-9.576,13.334c0,0-10.073,5.105-16.558-10.515   c0-0.114,8.012-3.505,11.941-6.744C141.116,52.047,145.961,53.419,150.921,53.685z"/>
	<path id="face-i2" fill="#FFBEB6" d="M174.691,37.683c-0.534,0.152-0.953,0.496-1.183,0.99c-1.984,4.229-12.59,23.203-36.932,10.973   c0,0-0.114-0.038-0.306-0.152l0,0c0.954,0.267,1.908-0.267,2.213-1.181c0.343-1.067,0.229-2.934-1.221-6.363   c-3.358-7.811,0.992-12.268,3.624-11.011c2.671,1.257,4.883,12.001,8.661,6.819c2.594-3.544,2.403-8.572,3.739-11.353   c0.229-0.496,0.687-0.838,1.221-0.952l17.017-4.153c0.114,0.343,0.191,0.723,0.229,1.067c0,0.114,0.038,0.229,0.114,0.381   c0.42,1.105,2.861,7.048,5.723,8.953C180.566,33.721,179.307,36.503,174.691,37.683z"/>
	<path id="hair-i2" fill="#23286B" d="M124.444,32.807l29.301-7.125c-1.831,2.515-1.335,8.23-4.159,12.115   c-3.777,5.144-5.99-5.563-8.661-6.819c-2.632-1.257-6.982,3.2-3.624,11.011s-0.42,7.658-0.42,7.658   C128.449,48.199,125.131,35.893,124.444,32.807z"/>
	<path id="mouth-i2" fill="#1C2868" d="M172.516,44.885c-1.259,1.867-3.777,2.4-5.685,1.143c-0.687-0.457-1.221-1.105-1.527-1.867   c-0.229-0.571,0.61-1.067,0.839-0.457c0.61,1.6,2.365,2.438,4.006,1.867c0.61-0.229,1.144-0.648,1.488-1.181   C172.058,43.893,172.897,44.389,172.516,44.885L172.516,44.885z"/>
	<path id="cap_bottom-i2" fill="#F1B505" d="M197.582,14.976l-73.444,17.907l0,0l-0.649-2.705l0,0l71.765-17.488   c0.954-0.229,1.908,0.343,2.137,1.296l0,0L197.582,14.976L197.582,14.976z"/>
	
		<linearGradient id="cap_top_1_-i2" gradientUnits="userSpaceOnUse" x1="4732.647" y1="1910.7234" x2="3855.9033" y2="2556.8943" gradientTransform="matrix(0.0741 0 0 0.0741 -184.2541 -141.1613)">
		<stop offset="0" style="stop-color:#F1B505"/>
		<stop offset="1" style="stop-color:#D69B09"/>
	</linearGradient>
	<path id="cap_top-i2" fill="url(#cap_top_1_-i2)" d="M171.143,18.558l-47.691,11.62l0,0l-1.335-5.372   c-2.289-9.373,3.472-18.822,12.858-21.107l12.972-3.162c9.767-2.4,19.649,3.619,22.014,13.373L171.143,18.558L171.143,18.558z"/>
</g>

            </g>
        </g>
    </g>
    
    <!-- ITEM 3 -->
    <g>
        <defs>
            <clipPath id="clip-path-id-viewbox-item-3">
                <rect x="0.0" y="0.0" width="385.0" height="300.0"/>
            </clipPath>
        </defs>
        <g transform="translate(303.0 299.0) rotate(0.0 78.0 61.0) scale(0.4051948051948052 0.4066666666666667)">
            <g clip-path="url(#clip-path-id-viewbox-item-3)" transform="translate(-0.0 -0.0)">
                
<g id="message-i3">
	
		<linearGradient id="bottom_1_-i3" gradientUnits="userSpaceOnUse" x1="179.0632" y1="-163.3896" x2="154.1742" y2="521.0507" gradientTransform="matrix(0.5555 0 0 -0.5555 100 251.1035)">
		<stop offset="0.0898" style="stop-color:#EEEEEE"/>
		<stop offset="0.8178" style="stop-color:#D6D7D8"/>
	</linearGradient>
	<rect id="bottom-i3" fill="url(#bottom_1_-i3)" width="385" height="300"/>
	<polygon id="top-i3" fill="#EEEEEE" points="0,0 192.5,150.018 385,0  "/>
</g>

            </g>
        </g>
    </g>
    
</svg>