<svg width="664" height="133" viewBox="0 0 664 133" fill="none" xmlns="http://www.w3.org/2000/svg">
<path d="M163.66 123L172.066 97.2329H212.934L221.34 123H247L207.957 10H177.098L138 123H163.66ZM178.149 78.5835L192.085 35.8223H192.97L206.906 78.5835H178.149Z" fill="#2D3748"/>
<path d="M639.389 42.0009H662.444C662.111 21.8869 645.444 8 620.111 8C595.167 8 576.889 21.6665 577 42.1663C576.944 58.8086 588.778 68.342 608 72.9159L620.389 76.0019C632.778 78.9777 639.667 82.5045 639.722 90.1093C639.667 98.3753 631.778 103.996 619.556 103.996C607.056 103.996 598.056 98.2651 597.278 86.9682H574C574.611 111.381 592.222 124 619.833 124C647.611 124 663.944 110.829 664 90.1644C663.944 71.3729 649.667 61.3986 629.889 56.99L619.667 54.5653C609.778 52.3059 601.5 48.6689 601.667 40.5682C601.667 33.2941 608.167 27.9487 619.944 27.9487C631.444 27.9487 638.5 33.1287 639.389 42.0009Z" fill="#2D3748"/>
<path d="M0 123H24.1492V86.3633H44.4501C70.7185 86.3633 86 70.8589 86 48.292C86 25.8355 70.9974 10 45.0636 10H0V123ZM24.1492 67.2173V29.5322H40.4345C54.3774 29.5322 61.1258 37.0361 61.1258 48.292C61.1258 59.4927 54.3774 67.2173 40.546 67.2173H24.1492Z" fill="#2D3748"/>
<path d="M348 65C348 67.7614 345.761 70 343 70C340.239 70 338 67.7614 338 65C338 62.2386 340.239 60 343 60C345.761 60 348 62.2386 348 65Z" fill="#38B2AC"/>
<path d="M371 65C371 67.7614 368.985 70 366.5 70C364.015 70 362 67.7614 362 65C362 62.2386 364.015 60 366.5 60C368.985 60 371 62.2386 371 65Z" fill="#38B2AC"/>
<path d="M359 81.5C359 83.9853 356.985 86 354.5 86C352.015 86 350 83.9853 350 81.5C350 79.0147 352.015 77 354.5 77C356.985 77 359 79.0147 359 81.5Z" fill="#38B2AC"/>
<path d="M393.975 76.8051C393.784 82.364 387.078 93.0189 386.57 93.0971C386.264 93.1442 393.551 96.0781 399.413 98.4112C403.467 100.024 408.053 98.2192 410 94.2609L407.712 46.2165C407.706 46.0803 407.639 45.9523 407.533 45.8689C397.43 37.9321 391.732 32.4768 384.708 25.9191C383.938 25.2003 384.437 23.8912 385.482 23.8912H406.02V0H392.831H384.845C380.294 0 375.634 0.689696 371.89 3.32106C370.502 4.29625 369.269 5.34728 368.175 6.46238C363.544 11.1824 359.255 19.5055 360.109 26.1154C360.25 27.2051 361.283 31.7838 362.166 32.419C379.05 44.5764 393.043 53.9491 393.975 62.8406C394.933 71.974 394.575 71.2467 393.975 76.8051Z" fill="#38B2AC"/>
<path d="M410.539 93.5034C405.428 104.506 396.708 113.636 385.648 119.565C374.588 125.493 361.765 127.912 349.044 126.468C336.323 125.024 324.367 119.793 314.915 111.537C305.705 103.491 301.217 96.8023 298.662 85.4836C298.543 84.958 298.81 84.4211 299.298 84.1925L316.85 75.971C317.526 75.6543 318.32 76.0501 318.512 76.7716C320.351 83.6975 324.912 90.9552 330.381 95.7322C336.224 100.837 343.616 104.071 351.481 104.963C359.346 105.856 367.274 104.361 374.112 100.696C380.628 97.3684 383.989 96.3152 391.759 85.7848L410.539 93.5034Z" fill="#38B2AC"/>
<path d="M465 65C465 67.7614 467.015 70 469.5 70C471.985 70 474 67.7614 474 65C474 62.2386 471.985 60 469.5 60C467.015 60 465 62.2386 465 65Z" fill="#38B2AC"/>
<path d="M442 65C442 67.7614 444.015 70 446.5 70C448.985 70 451 67.7614 451 65C451 62.2386 448.985 60 446.5 60C444.015 60 442 62.2386 442 65Z" fill="#38B2AC"/>
<path d="M453 81.5C453 83.9853 455.015 86 457.5 86C459.985 86 462 83.9853 462 81.5C462 79.0147 459.985 77 457.5 77C455.015 77 453 79.0147 453 81.5Z" fill="#38B2AC"/>
<path d="M418.345 76.8051C418.54 82.364 425.38 93.0189 425.899 93.0971C426.211 93.1442 418.778 96.0781 412.798 98.4112C408.664 100.024 403.986 98.2192 402 94.2609L404.334 46.2165C404.34 46.0803 404.408 45.9523 404.517 45.8689C414.821 37.9321 420.633 32.4768 427.798 25.9191C428.584 25.2003 428.074 23.8912 427.008 23.8912H406.06V0H419.513H427.658C432.3 0 437.053 0.689696 440.872 3.32106C442.288 4.29625 443.545 5.34728 444.661 6.46238C449.385 11.1824 453.76 19.5055 452.889 26.1154C452.745 27.2051 451.691 31.7838 450.791 32.419C433.569 44.5764 419.297 53.9491 418.345 62.8406C417.368 71.974 417.733 71.2467 418.345 76.8051Z" fill="#38B2AC"/>
<path d="M401.887 93.5034C406.999 104.506 415.719 113.636 426.779 119.565C437.839 125.493 450.662 127.912 463.383 126.468C476.104 125.024 488.06 119.793 497.512 111.537C506.722 103.491 511.21 96.8023 513.765 85.4836C513.883 84.958 513.616 84.4211 513.128 84.1925L495.577 75.971C494.901 75.6543 494.107 76.0501 493.915 76.7716C492.075 83.6975 487.515 90.9552 482.046 95.7322C476.202 100.837 468.81 104.071 460.945 104.963C453.08 105.856 445.152 104.361 438.314 100.696C431.799 97.3684 428.438 96.3152 420.668 85.7848L401.887 93.5034Z" fill="#38B2AC"/>
</svg>
