<svg width="293" height="81" viewBox="0 0 293 81" fill="none" xmlns="http://www.w3.org/2000/svg">
<path d="M74.6339 65L78.2504 53.8888H95.8331L99.4496 65H110.489L93.6918 16.2727H80.4155L63.5941 65H74.6339ZM80.8675 45.8469L86.8633 27.4077H87.244L93.2397 45.8469H80.8675Z" fill="white"/>
<path d="M279.669 30.2866H289.543C289.4 21.6023 282.262 15.6065 271.413 15.6065C260.73 15.6065 252.902 21.5071 252.95 30.358C252.926 37.5433 257.994 41.6594 266.226 43.6342L271.532 44.9666C276.837 46.2514 279.788 47.7741 279.811 51.0575C279.788 54.6264 276.409 57.0533 271.175 57.0533C265.821 57.0533 261.967 54.5788 261.634 49.7013H251.665C251.926 60.2415 259.469 65.69 271.294 65.69C283.19 65.69 290.185 60.0036 290.209 51.0813C290.185 42.968 284.07 38.6616 275.6 36.7582L271.222 35.7113C266.987 34.7358 263.442 33.1655 263.513 29.668C263.513 26.5273 266.297 24.2195 271.341 24.2195C276.266 24.2195 279.288 26.456 279.669 30.2866Z" fill="white"/>
<path d="M4.23509 65H14.5373V49.2017H23.1978C34.4041 49.2017 40.9233 42.516 40.9233 32.7848C40.9233 23.1012 34.5231 16.2727 23.4595 16.2727H4.23509V65ZM14.5373 40.9457V24.6953H21.4847C27.4329 24.6953 30.3118 27.9311 30.3118 32.7848C30.3118 37.6147 27.4329 40.9457 21.5323 40.9457H14.5373Z" fill="white"/>
<circle cx="152" cy="40" r="2" fill="#38B2AC"/>
<circle cx="162" cy="40" r="2" fill="#38B2AC"/>
<circle cx="157" cy="47" r="2" fill="#38B2AC"/>
<path d="M174 45C173.916 47.3884 170.987 51.9664 170.765 52C170.631 52.0202 173.814 53.2808 176.375 54.2832C178.146 54.9764 180.149 54.2007 181 52.5L180 31.8573C179.997 31.7988 179.968 31.7438 179.922 31.708C175.509 28.2978 173.02 25.9539 169.951 23.1364C169.615 22.8275 169.833 22.2651 170.29 22.2651H179.261V12H173.5H170.011C168.023 12 165.988 12.2963 164.352 13.4269C163.746 13.8459 163.208 14.2975 162.73 14.7766C160.707 16.8046 158.833 20.3807 159.206 23.2207C159.268 23.6889 159.719 25.6562 160.104 25.9291C167.48 31.1526 173.592 35.1797 174 39C174.418 42.9243 174.262 42.6118 174 45Z" fill="#38B2AC"/>
<path d="M181.1 52.3291C178.896 57.0749 175.135 61.0127 170.364 63.5698C165.594 66.1268 160.063 67.1698 154.577 66.5471C149.09 65.9244 143.933 63.6684 139.856 60.1072C135.884 56.6371 133.948 53.752 132.846 48.8701C132.795 48.6434 132.91 48.4118 133.121 48.3132L140.691 44.7672C140.982 44.6306 141.325 44.8013 141.408 45.1125C142.201 48.0997 144.168 51.2301 146.527 53.2904C149.047 55.4922 152.236 56.887 155.628 57.272C159.02 57.657 162.44 57.0122 165.389 55.4312C168.199 53.9961 169.649 53.5419 173 49L181.1 52.3291Z" fill="#38B2AC"/>
<circle r="2" transform="matrix(-1 0 0 1 206.47 40)" fill="#38B2AC"/>
<circle r="2" transform="matrix(-1 0 0 1 196.47 40)" fill="#38B2AC"/>
<circle r="2" transform="matrix(-1 0 0 1 201.47 47)" fill="#38B2AC"/>
<path d="M184.47 45C184.554 47.3884 187.483 51.9664 187.705 52C187.839 52.0202 184.655 53.2808 182.095 54.2832C180.324 54.9764 178.321 54.2007 177.47 52.5L178.47 31.8573C178.472 31.7988 178.502 31.7438 178.548 31.708C182.961 28.2978 185.45 25.9539 188.518 23.1364C188.855 22.8275 188.637 22.2651 188.18 22.2651H179.209V12H184.97H188.458C190.447 12 192.482 12.2963 194.118 13.4269C194.724 13.8459 195.262 14.2975 195.74 14.7766C197.763 16.8046 199.637 20.3807 199.264 23.2207C199.202 23.6889 198.751 25.6562 198.365 25.9291C190.99 31.1526 184.878 35.1797 184.47 39C184.052 42.9243 184.208 42.6118 184.47 45Z" fill="#38B2AC"/>
<path d="M177.369 52.3291C179.574 57.0749 183.335 61.0127 188.105 63.5698C192.876 66.1268 198.406 67.1698 203.893 66.5471C209.38 65.9244 214.537 63.6684 218.613 60.1072C222.586 56.6371 224.522 53.752 225.623 48.8701C225.675 48.6434 225.559 48.4118 225.349 48.3132L217.779 44.7672C217.487 44.6306 217.145 44.8013 217.062 45.1125C216.269 48.0997 214.301 51.2301 211.943 53.2904C209.422 55.4922 206.234 56.887 202.842 57.272C199.449 57.657 196.03 57.0122 193.081 55.4312C190.271 53.9961 188.821 53.5419 185.47 49L177.369 52.3291Z" fill="#38B2AC"/>
</svg>
