<svg width="21" height="20" viewBox="0 0 21 20" fill="none" xmlns="http://www.w3.org/2000/svg">
<path d="M2.16667 4.99996H0.5V9.16663H0.508333L0.5 16.6666C0.5 17.5833 1.25 18.3333 2.16667 18.3333H17.1667V16.6666H2.16667V4.99996ZM6.33333 12.5H18L15.0833 8.74996L13 11.2583L10.0833 7.49996L6.33333 12.5ZM18.8333 3.33329H12.1667L10.5 1.66663H5.5C4.58333 1.66663 3.84167 2.41663 3.84167 3.33329L3.83333 13.3333C3.83333 14.25 4.58333 15 5.5 15H18.8333C19.75 15 20.5 14.25 20.5 13.3333V4.99996C20.5 4.08329 19.75 3.33329 18.8333 3.33329ZM18.8333 13.3333H5.5V3.33329H9.80833L10.9833 4.50829L11.475 4.99996H18.8333V13.3333Z" fill="#718096"/>
</svg>
